<?xml version="1.0" standalone="no"?>
<!DOCTYPE svg PUBLIC "-//W3C//DTD SVG 20010904//EN"
 "http://www.w3.org/TR/2001/REC-SVG-20010904/DTD/svg10.dtd">
<svg version="1.0" xmlns="http://www.w3.org/2000/svg"
 width="660.000000pt" height="660.000000pt" viewBox="0 0 660.000000 660.000000"
 preserveAspectRatio="xMidYMid meet">
<metadata>
Created by potrace 1.11, written by Peter Selinger 2001-2013
</metadata>
<g transform="translate(0.000000,660.000000) scale(0.100000,-0.100000)"
fill="#000000" stroke="none">
<path d="M1421 6394 c-12 -15 -21 -36 -22 -48 -1 -11 -2 -70 -4 -130 -2 -60
-7 -111 -13 -115 -6 -3 -251 -6 -546 -6 l-536 0 -30 -59 c-17 -32 -28 -62 -24
-65 3 -3 146 -6 317 -7 172 0 329 -4 350 -8 l37 -8 -22 -20 c-13 -11 -50 -36
-83 -56 -63 -38 -115 -74 -153 -107 -62 -53 -77 -64 -101 -77 -14 -7 -28 -16
-31 -19 -3 -3 -12 -10 -21 -15 -21 -12 -96 -72 -126 -102 -16 -16 -23 -34 -23
-63 0 -51 -20 -90 -80 -153 -26 -28 -73 -100 -105 -161 -78 -149 -105 -195
-115 -195 -9 0 -36 -61 -32 -73 1 -4 -2 -16 -7 -25 -5 -9 -12 -42 -16 -72 -4
-30 -9 -58 -10 -61 -13 -20 -19 -184 -17 -439 2 -334 7 -421 27 -486 9 -29 10
-55 5 -74 -5 -18 -5 -32 1 -36 6 -3 8 -11 6 -17 -2 -7 0 -22 4 -35 5 -12 11
-33 13 -45 10 -51 86 -320 108 -382 24 -66 57 -131 72 -144 9 -7 16 -20 16
-29 0 -14 50 -83 93 -127 10 -11 31 -42 46 -70 18 -34 32 -50 46 -50 11 0 33
-9 49 -20 16 -11 41 -18 56 -17 15 2 37 -6 52 -17 14 -12 29 -21 32 -21 3 0
16 -10 29 -22 138 -132 149 -139 191 -143 10 -2 23 -10 28 -19 5 -9 17 -16 26
-16 10 0 28 -7 40 -16 13 -9 29 -13 37 -10 8 3 17 1 20 -3 4 -8 32 -15 105
-28 65 -11 169 -13 210 -4 28 6 49 6 54 1 6 -6 10 -45 11 -87 l1 -78 47 -1
c29 -1 57 6 77 17 31 19 35 34 30 117 -1 18 1 45 4 60 l7 27 457 1 c251 1 549
4 662 8 239 7 767 8 825 2 250 -27 474 -35 570 -21 103 14 299 19 430 9 39 -3
113 -6 166 -8 81 -2 105 -7 152 -30 44 -21 60 -35 76 -70 33 -68 34 -201 1
-201 -15 0 -16 -9 -6 -77 6 -46 -33 -78 -127 -103 -43 -12 -188 -13 -827 -9
-867 5 -2197 7 -2365 3 -60 -1 -123 1 -139 5 -20 5 -34 2 -47 -10 -26 -24 -81
-27 -152 -9 -67 17 -89 16 -126 -4 -37 -20 -147 -6 -191 24 -45 31 -69 31
-106 2 -25 -19 -42 -22 -133 -24 -66 -2 -107 1 -112 8 -3 6 -5 50 -4 97 2 107
-1 119 -35 137 -58 30 -88 -27 -88 -162 l0 -78 -88 -3 c-49 -2 -89 -4 -90 -5
-1 -1 -4 -24 -7 -52 -3 -27 -8 -62 -11 -77 -7 -32 -8 -31 79 -32 55 -1 61 -3
73 -28 7 -14 15 -46 18 -70 3 -24 8 -59 11 -78 3 -19 7 -244 8 -499 3 -528 8
-499 -79 -499 -25 0 -50 -3 -56 -7 -5 -3 -10 -2 -10 2 0 13 -70 3 -71 -11 -12
-101 -2 -110 112 -101 102 8 94 17 104 -115 6 -94 12 -128 29 -177 8 -24 47
-40 66 -28 22 14 42 71 46 134 6 98 13 161 19 171 15 25 152 -1 194 -36 16
-13 32 -36 36 -51 9 -37 33 -73 48 -73 23 1 50 29 53 56 5 48 26 86 44 81 9
-2 34 4 55 14 39 19 45 19 284 15 l105 -1 2 -121 c3 -125 14 -190 41 -231 18
-27 25 -23 42 27 20 56 24 81 25 155 0 39 4 72 8 75 4 3 9 22 11 43 2 21 6 40
9 42 24 25 2955 25 3108 1 14 -2 48 -8 75 -12 28 -4 52 -8 55 -9 82 -19 113
-31 141 -54 33 -28 34 -29 31 -106 -2 -82 11 -117 58 -160 24 -22 27 -19 34
23 4 18 8 46 11 64 3 17 8 34 10 38 4 6 11 63 19 150 2 23 6 25 57 26 66 2
127 12 193 33 76 24 134 26 716 17 245 -4 260 -3 345 20 88 24 124 31 174 33
36 2 20 10 -56 31 -37 10 -93 25 -123 34 -107 29 -99 29 -507 21 -106 -2 -195
0 -198 5 -9 15 39 55 117 98 62 34 169 116 203 156 6 6 42 35 80 63 99 73 164
148 169 196 2 23 74 155 114 211 12 17 25 39 28 49 4 9 10 17 15 17 5 0 9 6 9
14 0 8 4 16 8 18 13 5 88 122 96 149 16 54 20 88 18 169 -2 95 -2 536 1 850 1
230 -4 281 -34 360 -12 30 -31 89 -44 130 -30 98 -106 247 -172 337 -90 124
-329 353 -368 353 -7 0 -20 11 -29 24 -10 16 -22 23 -34 19 -16 -4 -59 24 -50
32 6 5 114 16 203 21 196 9 295 21 295 36 0 22 -187 72 -234 62 -12 -3 -52 -4
-91 -4 -70 0 -104 3 -225 15 -36 4 -119 8 -185 10 -66 2 -120 4 -120 5 0 6
-123 11 -225 10 -14 0 -70 1 -125 1 -94 2 -272 -6 -395 -17 -81 -7 -597 -7
-970 2 -577 12 -898 10 -1250 -11 -89 -6 -500 -6 -550 -2 -19 2 -48 7 -65 11
-16 3 -39 8 -50 10 -44 9 -131 49 -167 78 -60 47 -81 98 -76 179 4 54 12 78
36 116 60 93 131 130 251 132 40 0 80 5 89 10 20 10 368 6 522 -5 58 -5 382
-8 720 -6 667 2 2104 11 2398 15 174 2 183 1 189 -18 4 -11 6 -22 6 -25 -1 -3
7 -16 16 -29 13 -17 28 -24 50 -23 40 1 47 6 54 41 6 30 26 44 45 32 7 -4 14
-33 17 -65 5 -58 19 -96 35 -96 4 0 15 -2 22 -5 19 -7 56 68 64 128 6 43 8 45
44 51 41 6 49 18 57 81 3 22 10 48 15 59 6 11 6 16 1 13 -16 -10 -52 31 -62
71 -24 92 -29 233 -16 492 4 80 8 179 9 220 2 69 18 120 38 120 22 0 48 43 48
78 0 45 -16 71 -49 77 -35 7 -41 16 -45 68 -4 59 1 65 49 69 38 3 40 5 45 40
3 21 12 46 20 55 8 10 15 25 15 33 0 16 -57 31 -75 20 -14 -9 -58 -1 -66 12
-3 5 -7 28 -9 52 -4 59 -29 101 -73 125 -21 11 -26 9 -48 -16 -23 -25 -25 -35
-21 -90 3 -42 0 -68 -8 -80 -13 -17 -14 -16 -24 10 -6 16 -11 52 -11 82 0 45
-4 55 -25 69 -36 23 -63 20 -96 -13 -27 -27 -28 -33 -23 -90 5 -54 3 -61 -13
-62 -10 -1 -159 -2 -332 -3 -220 -1 -318 2 -329 10 -13 9 -16 36 -17 138 l-1
127 -29 24 c-37 30 -60 31 -82 5 -22 -25 -24 -35 -27 -173 -2 -81 -6 -121 -15
-126 -7 -5 -99 -6 -204 -4 -299 7 -928 6 -1427 -2 -516 -8 -1174 -10 -1518 -3
-260 5 -260 5 -263 78 -5 156 -10 193 -26 220 -22 38 -55 39 -82 4z m1369
-453 c39 -6 59 -6 69 3 11 8 13 8 10 -1 -2 -7 -33 -30 -69 -51 -52 -31 -65
-43 -63 -60 2 -17 -7 -29 -35 -45 -33 -19 -110 -51 -152 -62 -119 -32 -160
-48 -160 -65 0 -5 -19 -18 -42 -28 -24 -10 -76 -40 -116 -65 -40 -26 -77 -47
-82 -47 -6 0 -10 -4 -10 -9 0 -5 -17 -16 -37 -25 -43 -18 -94 -47 -126 -70
-98 -71 -169 -116 -191 -122 -14 -3 -26 -10 -26 -15 0 -12 -60 -78 -81 -90
-35 -18 -109 -28 -109 -14 0 7 11 16 24 19 13 3 37 21 52 39 26 30 81 97 94
116 21 30 88 66 133 70 4 1 7 7 7 15 0 12 27 26 142 75 20 9 70 51 111 94 47
49 82 77 96 77 11 0 21 3 21 8 0 4 39 34 87 67 47 33 107 81 132 106 59 60 86
76 140 83 24 3 46 7 48 9 5 5 65 0 133 -12z m2003 6 c73 -1 116 -4 114 -11 -2
-5 -30 -19 -63 -31 -32 -12 -81 -32 -109 -45 -27 -13 -63 -25 -79 -27 -16 -2
-43 -10 -60 -18 l-31 -16 31 29 c28 25 30 33 28 81 l-3 53 27 -7 c15 -5 80 -8
145 -8z m805 -3 c14 -5 12 -8 -11 -21 -26 -13 -30 -13 -42 4 -9 12 -10 20 -3
25 11 6 16 5 56 -8z m-3949 -3 c21 -1 -44 -66 -81 -82 -16 -6 -30 -10 -33 -8
-7 8 13 82 25 89 7 4 26 6 44 5 17 -2 38 -3 45 -4z m275 -32 c-20 -21 -58 -48
-83 -61 -25 -13 -48 -26 -51 -29 -5 -6 -46 -18 -83 -26 -17 -3 -17 -2 0 15 10
9 44 35 77 57 32 21 64 48 72 60 10 16 24 21 59 21 l46 1 -37 -38z m391 20
c-10 -10 -23 -19 -30 -19 -6 0 -21 -9 -33 -21 -18 -16 -23 -17 -28 -6 -9 23
37 62 75 64 32 2 33 1 16 -18z m952 6 c-2 -5 -8 -10 -13 -11 -5 0 -16 -3 -24
-7 -8 -3 -31 -10 -50 -16 -20 -6 -57 -29 -84 -52 -57 -46 -142 -98 -204 -122
-24 -10 -53 -27 -66 -40 -47 -46 -100 -87 -113 -87 -12 0 -51 -19 -63 -30 -30
-29 -61 -52 -73 -54 -9 -1 -51 -36 -95 -77 -107 -101 -206 -190 -308 -274 -26
-22 -62 -52 -78 -67 -17 -16 -33 -28 -37 -28 -3 0 -19 -11 -35 -25 -16 -14
-70 -46 -120 -71 -50 -24 -106 -59 -125 -77 -62 -58 -68 -61 -62 -37 8 31 112
133 233 229 88 69 199 163 244 206 30 29 85 65 98 65 8 0 23 8 34 18 10 10 47
37 81 61 33 23 63 51 66 62 3 10 13 19 24 19 29 0 121 47 150 77 16 15 36 29
46 30 9 2 36 15 59 30 22 16 49 32 59 38 11 5 19 13 19 17 0 5 7 8 15 8 8 0
15 3 15 8 0 4 23 21 51 37 28 17 57 36 64 43 8 6 18 12 24 12 6 0 11 5 11 10
0 6 6 10 14 10 8 0 18 10 22 23 10 29 11 33 13 60 1 22 4 22 106 22 65 0 104
-4 102 -10z m653 -6 c-14 -11 -42 -28 -62 -39 -34 -19 -37 -19 -42 -2 -13 39
-72 55 -126 35 -8 -3 -24 -8 -34 -10 -11 -2 -28 -10 -37 -19 -10 -9 -23 -17
-31 -19 -37 -9 -58 -18 -58 -26 0 -5 -6 -9 -14 -9 -8 0 -17 -7 -20 -16 -3 -8
-10 -13 -15 -10 -5 3 -14 -1 -21 -9 -7 -8 -16 -13 -20 -10 -5 3 -11 1 -15 -5
-4 -6 -11 -8 -16 -5 -5 4 -9 1 -9 -4 0 -6 -7 -11 -17 -11 -13 0 -11 4 7 20 13
11 27 20 32 20 4 0 24 10 43 23 26 17 36 31 41 62 3 22 8 43 10 47 2 3 100 6
216 6 l212 0 -24 -19z m520 6 c-5 -6 -26 -12 -46 -13 -50 -4 -94 -25 -149 -74
-25 -22 -45 -37 -45 -35 0 3 -39 -14 -87 -39 -47 -24 -88 -42 -90 -41 -2 2 18
19 45 38 63 44 60 42 117 93 96 85 89 81 180 81 57 0 81 -3 75 -10z m1517
-152 c-3 -10 -5 -2 -5 17 0 19 2 27 5 18 2 -10 2 -26 0 -35z m-4577 4 c0 -7
-16 -19 -35 -26 -19 -7 -33 -17 -30 -22 4 -5 -8 -9 -24 -9 -17 0 -31 -4 -31
-10 0 -5 -5 -10 -11 -10 -6 0 -37 -21 -70 -46 -32 -25 -80 -52 -107 -61 -26
-9 -51 -20 -56 -24 -13 -12 -26 -11 -26 0 0 6 28 24 63 41 34 18 74 41 89 52
50 35 213 128 226 128 6 0 12 -6 12 -13z m1979 -30 c-2 -1 -25 -17 -51 -35
-25 -17 -51 -32 -57 -32 -6 0 -11 -5 -11 -11 0 -5 -4 -7 -10 -4 -5 3 -10 11
-10 16 0 6 5 7 10 4 6 -3 10 -1 10 4 0 6 4 11 10 11 5 0 31 13 56 30 26 16 50
28 52 25 3 -3 3 -6 1 -8z m1025 -87 c-36 -33 -70 -60 -75 -60 -6 0 -29 -9 -52
-20 -41 -20 -42 -20 -22 -1 23 22 196 139 208 140 4 1 -22 -26 -59 -59z m1385
-32 c-14 -26 -65 -61 -164 -114 -49 -26 -107 -62 -128 -80 -24 -20 -54 -34
-82 -38 -61 -10 -149 -70 -247 -170 -15 -16 -31 -26 -34 -23 -4 3 -8 29 -9 56
-2 39 1 52 14 56 9 3 24 27 34 54 22 64 60 91 134 98 40 4 54 2 49 -6 -25 -40
72 -22 157 30 27 16 52 29 57 29 4 0 15 11 24 25 9 14 47 44 84 69 101 66 106
68 113 48 4 -9 2 -25 -2 -34z m-2581 10 c-24 -32 -68 -50 -68 -29 0 8 76 61
89 61 2 0 -8 -15 -21 -32z m-231 -153 c-43 -41 -85 -75 -93 -75 -8 0 -28 -13
-46 -30 -17 -16 -35 -30 -41 -30 -5 0 -23 -13 -38 -30 -16 -16 -43 -37 -61
-46 -34 -17 -239 -152 -248 -163 -3 -4 -39 -31 -80 -61 -41 -30 -102 -76 -135
-102 -63 -50 -75 -56 -75 -35 0 22 51 68 142 128 48 32 102 72 119 89 45 44
114 89 147 96 16 3 46 21 67 40 21 18 41 31 45 29 4 -2 34 21 66 53 69 67 105
92 134 92 11 0 33 11 48 24 37 34 116 95 122 95 3 1 -30 -33 -73 -74z m1233
61 c0 -4 -96 -71 -130 -91 -13 -8 -13 -7 0 11 24 32 64 62 76 57 6 -2 17 3 24
12 11 14 30 21 30 11z m-2930 -37 c-19 -16 -42 -28 -51 -27 -8 2 -33 -11 -55
-27 -56 -43 -84 -57 -84 -42 0 7 12 18 28 25 15 6 55 32 90 57 35 25 73 45 85
45 20 -1 19 -4 -13 -31z m4697 -21 c-3 -8 -6 -5 -6 6 -1 11 2 17 5 13 3 -3 4
-12 1 -19z m-1957 -78 c-24 -15 -37 -11 -16 5 11 8 22 12 25 9 3 -3 -1 -9 -9
-14z m-810 -8 c0 -16 -198 -202 -215 -202 -19 0 -115 -67 -115 -80 0 -4 -21
-13 -47 -20 -59 -16 -164 -83 -185 -117 -8 -14 -18 -21 -21 -15 -9 13 67 99
104 118 16 8 29 23 29 33 0 14 21 26 86 51 67 25 90 39 103 61 9 16 21 29 27
29 6 0 21 12 35 26 14 15 31 23 41 21 13 -4 18 1 18 15 0 14 5 18 15 14 8 -3
19 2 24 12 5 9 27 27 48 38 43 25 53 28 53 16z m2580 -2 c0 -20 -43 -47 -97
-62 l-56 -16 29 23 c16 13 40 26 53 30 13 3 30 13 38 20 17 17 33 20 33 5z
m-1375 -10 c-4 -6 -10 -8 -15 -5 -5 3 -69 -53 -142 -123 -73 -71 -168 -162
-210 -202 -47 -44 -78 -81 -78 -93 0 -31 -65 -102 -115 -126 -48 -22 -171 -52
-179 -43 -7 6 23 48 74 102 23 24 48 60 56 79 19 45 30 55 139 125 92 60 242
171 305 226 19 16 40 28 45 26 6 -2 31 6 55 19 50 25 75 30 65 15z m-3065 -63
c0 -43 -19 -60 -100 -88 -36 -12 -67 -25 -70 -29 -3 -5 -16 -10 -30 -12 -14
-2 -24 -9 -23 -16 2 -8 -10 -12 -33 -12 -21 0 -33 -4 -29 -10 3 -5 -1 -10 -9
-10 -9 0 -16 -5 -16 -12 0 -6 -3 -9 -6 -5 -7 7 -79 -27 -109 -52 -13 -11 -12
-7 5 16 14 17 45 42 70 54 25 13 59 34 77 47 17 13 34 22 37 20 3 -2 14 4 24
13 11 9 53 36 93 59 41 24 78 49 82 57 16 26 37 14 37 -20z m2568 15 c-16 -9
-28 -20 -28 -25 0 -4 -5 -5 -10 -2 -13 8 29 44 50 44 8 0 3 -7 -12 -17z m-602
-156 c-48 -45 -121 -112 -163 -151 -42 -38 -83 -77 -91 -87 -8 -9 -20 -14 -26
-12 -7 3 -22 -7 -34 -21 -12 -14 -29 -25 -38 -25 -10 0 -1 18 30 58 46 60 110
122 126 122 5 0 12 9 15 20 4 12 14 20 23 18 25 -4 89 39 95 63 4 14 11 20 20
16 9 -3 20 4 27 19 8 13 21 24 30 24 9 0 27 13 40 29 14 16 27 24 29 18 2 -5
-35 -46 -83 -91z m1649 -51 c1 -35 -97 -135 -133 -135 -20 0 -75 -35 -120 -78
-8 -7 -17 -10 -21 -6 -3 3 35 44 84 89 50 46 108 102 129 125 44 45 61 47 61
5z m-3649 -116 c0 -8 -4 -22 -9 -32 -11 -23 -118 -92 -222 -143 -44 -21 -82
-41 -85 -44 -3 -3 -27 -15 -55 -28 l-50 -24 45 41 c25 23 59 48 75 56 17 8 46
28 65 45 19 16 39 30 43 30 4 0 15 6 23 13 31 26 41 33 85 64 26 18 49 29 53
26 3 -3 6 -1 6 6 0 17 25 8 26 -10z m303 -62 c-13 -13 -29 -33 -36 -43 -11
-18 -12 -17 -12 6 0 31 18 56 44 62 29 6 30 2 4 -25z m3731 -46 c-5 -10 -26
-33 -46 -51 -39 -34 -77 -97 -68 -111 6 -10 3 -11 -51 -11 -63 0 -64 0 -62 30
2 22 12 32 52 52 51 26 65 35 92 60 31 28 78 58 86 53 4 -2 3 -12 -3 -22z
m-890 -6 c0 -8 -13 -30 -30 -48 -16 -19 -30 -42 -30 -50 0 -9 -5 -19 -10 -22
-6 -4 -8 -10 -6 -14 3 -4 1 -13 -4 -21 -10 -17 -160 -27 -160 -11 0 14 64 64
113 89 23 12 60 37 82 56 47 41 45 40 45 21z m-945 -62 c-5 -65 -20 -91 -57
-97 -146 -22 -173 -11 -92 39 32 20 77 50 99 65 22 16 43 29 47 29 3 1 5 -16
3 -36z m-1125 -62 c0 -7 6 -11 15 -7 8 3 19 -2 24 -11 18 -33 105 -22 216 27
77 34 96 41 93 32 -28 -58 -34 -63 -87 -79 -42 -12 -88 -16 -186 -14 -123 3
-226 7 -234 10 -11 4 28 35 61 48 21 8 44 25 50 36 10 20 11 20 29 -4 10 -13
19 -30 19 -38z m-984 -14 c3 -29 3 -29 -41 -29 -56 -1 -58 2 -19 31 46 35 56
34 60 -2z m3397 -17 c-6 -21 -12 -24 -37 -14 -13 5 -14 9 -5 20 18 22 48 18
42 -6z m747 -5 c0 -16 -9 -19 -34 -9 -20 8 -11 24 15 24 10 0 19 -7 19 -15z
m-5095 -113 c-6 -4 -35 -27 -65 -50 -72 -54 -183 -169 -176 -181 3 -5 -1 -12
-9 -15 -18 -7 -24 6 -29 58 -2 33 4 46 46 96 45 52 90 82 143 93 36 8 99 7 90
-1z m642 -50 c-10 -10 -24 -19 -32 -19 -10 0 -12 5 -4 19 5 10 19 18 31 18 20
0 20 -1 5 -18z m-57 -26 c0 -2 -7 -7 -16 -10 -8 -3 -12 -2 -9 4 6 10 25 14 25
6z m367 -259 c6 -63 -1 -72 -57 -74 -51 -1 -121 -33 -150 -68 -20 -24 -100
-53 -100 -37 0 4 17 21 36 37 20 17 42 36 49 43 8 6 16 12 20 12 4 0 13 7 22
16 9 8 21 13 28 11 6 -3 17 4 24 14 6 11 16 17 21 14 6 -3 10 -1 10 5 0 6 12
15 27 21 15 5 33 19 41 30 17 25 25 18 29 -24z m-1162 -27 c8 -13 74 -13 113
1 54 19 52 6 -10 -53 l-59 -57 -21 25 c-13 14 -28 22 -38 19 -13 -4 -16 2 -14
32 1 21 2 39 3 41 3 6 20 1 26 -8z m142 -265 c26 9 -5 -31 -51 -69 -26 -21
-46 -44 -46 -52 0 -21 -18 -17 -25 5 -5 16 -2 46 10 101 2 8 4 20 4 27 1 8 14
7 48 -3 26 -8 53 -12 60 -9z m1261 -64 c1 -1 -2 -10 -8 -21 -6 -11 -20 -20
-30 -20 -11 0 -20 -4 -20 -10 0 -23 -18 -7 -22 20 -4 25 -1 29 21 32 22 3 45
3 59 -1z m284 -22 c-7 -30 -68 -103 -130 -156 -37 -32 -101 -92 -143 -134 -46
-46 -82 -74 -88 -69 -24 14 10 56 84 103 41 26 85 62 99 80 46 60 66 155 36
165 -9 3 -6 9 8 16 28 15 138 12 134 -5z m295 -45 c-42 -41 -76 -64 -90 -64
-13 0 -38 -15 -57 -35 -19 -19 -41 -35 -49 -35 -9 0 -38 -18 -66 -40 -75 -59
-95 -73 -100 -68 -2 2 17 26 43 54 26 27 72 78 102 113 124 144 115 137 205
138 l79 0 -67 -63z m433 61 c0 -10 -53 -56 -83 -71 -18 -9 -44 -28 -59 -42
-37 -35 -47 -21 -12 15 34 35 54 67 54 88 0 11 12 15 50 15 28 0 50 -2 50 -5z
m244 -10 c-6 -15 -42 -30 -51 -21 -12 12 6 32 30 34 19 1 25 -2 21 -13z m276
3 c0 -4 -5 -8 -11 -8 -7 0 -17 -7 -24 -17 -8 -10 -14 -12 -19 -5 -3 6 0 17 8
25 15 15 46 19 46 5z m1295 -18 c-10 -11 -25 -20 -33 -20 -9 0 -24 -7 -34 -17
-17 -15 -18 -15 -18 5 0 27 36 52 74 52 28 0 29 0 11 -20z m723 -30 c13 0 12
-3 -4 -15 -28 -19 -77 -28 -68 -12 16 28 28 38 41 32 8 -3 22 -5 31 -5z m387
-31 c13 -20 -37 -57 -86 -63 -4 -1 -25 -13 -48 -28 -23 -15 -41 -25 -41 -23 0
2 32 31 70 65 70 59 93 70 105 49z m269 -134 c-8 -19 -62 -46 -69 -34 -3 5 -1
18 5 29 13 24 73 30 64 5z m-5530 -14 c18 -7 17 -9 -6 -34 -33 -35 -38 -34
-35 8 2 36 8 39 41 26z m5709 -167 l29 -34 -64 -30 c-75 -35 -158 -62 -158
-49 0 4 32 34 71 65 39 31 73 62 76 70 7 20 14 17 46 -22z m-5583 -56 c-20
-38 -60 -88 -71 -88 -12 0 -43 70 -35 78 3 3 17 6 30 8 13 1 37 9 53 17 34 18
38 16 23 -15z m5771 -189 c10 -21 19 -43 19 -48 0 -9 -37 -22 -102 -36 -16 -3
-28 -12 -28 -20 0 -8 -6 -15 -14 -15 -7 0 -33 -10 -57 -23 -24 -13 -62 -29
-84 -36 -22 -7 -74 -35 -115 -62 -41 -27 -102 -62 -135 -78 -33 -16 -69 -36
-80 -45 -74 -59 -230 -175 -279 -207 -77 -50 -110 -53 -58 -5 20 19 79 74 130
123 52 48 96 86 100 85 3 -2 9 3 14 12 5 9 16 16 24 16 33 0 87 35 159 102 42
39 76 64 80 58 9 -15 25 -2 25 21 0 10 5 19 10 19 6 0 13 0 18 0 4 1 27 20 52
44 92 88 181 133 263 133 34 0 40 -4 58 -38z m-4967 -1 c-7 -17 -54 -51 -61
-44 -6 5 47 55 59 56 4 0 5 -6 2 -12z m-677 -38 c-8 -12 -33 -34 -54 -50 -37
-27 -41 -28 -61 -14 -33 23 -29 53 6 52 33 -1 102 30 102 45 0 8 3 8 11 0 8
-8 7 -17 -4 -33z m5095 10 c-11 -3 -36 -18 -55 -35 -19 -16 -43 -36 -53 -42
-74 -49 -180 -128 -187 -139 -4 -8 -12 -14 -18 -14 -5 0 -15 -4 -22 -10 -60
-49 -79 -62 -99 -65 -19 -4 -17 0 12 23 19 15 45 37 56 50 13 13 28 20 37 16
11 -4 27 6 46 28 16 19 83 72 148 118 65 46 120 88 121 92 2 5 11 3 19 -4 14
-11 13 -13 -5 -18z m-1382 3 c0 -10 -13 -31 -28 -48 -15 -16 -45 -51 -66 -77
-22 -27 -47 -48 -58 -48 -10 0 -21 -7 -24 -15 -4 -8 -13 -15 -22 -15 -28 0
-220 -118 -230 -142 -2 -5 -9 -8 -16 -8 -7 0 -21 -9 -30 -19 -9 -10 -28 -21
-41 -23 -33 -7 -22 13 47 79 69 68 85 80 197 147 51 32 100 64 108 72 8 8 18
14 23 14 7 0 67 46 110 85 21 19 30 18 30 -2z m445 7 c15 -24 -45 -89 -163
-179 -97 -73 -158 -112 -166 -104 -3 4 -6 2 -6 -4 0 -6 -21 -13 -47 -16 -35
-4 -53 -12 -70 -32 l-23 -27 2 30 c1 17 13 39 28 52 53 45 121 91 142 95 25 5
58 33 58 51 0 11 61 63 68 56 9 -9 36 2 65 28 33 29 84 60 99 60 4 0 10 -5 13
-10z m-2009 -184 c-93 -119 -184 -188 -281 -212 -28 -7 -29 -6 -15 12 44 55
71 79 157 140 53 37 100 72 107 78 44 42 89 76 93 72 3 -3 -24 -43 -61 -90z
m-1916 13 c0 -5 -15 -21 -32 -36 -62 -54 -86 -83 -95 -119 -8 -36 -8 -36 -30
-17 -12 11 -24 30 -28 44 -5 21 1 27 49 52 30 16 70 44 88 62 31 30 48 36 48
14z m4160 14 c0 -3 -44 -50 -97 -103 -54 -53 -109 -113 -123 -132 -33 -48
-104 -84 -141 -73 -17 6 -17 10 11 58 43 76 80 119 96 113 8 -3 14 1 14 9 0 8
6 12 13 9 11 -4 81 36 127 73 8 7 26 21 40 32 24 20 60 28 60 14z m-2041 -99
c-14 -17 -84 -64 -95 -64 -10 0 20 26 61 53 48 31 52 32 34 11z m322 -32 c-64
-90 -271 -234 -315 -219 -22 8 131 137 162 137 11 0 32 15 48 34 35 40 103 88
115 80 5 -3 1 -17 -10 -32z m-1987 -27 c-26 -25 -49 -44 -51 -41 -7 7 71 86
85 86 7 0 -8 -20 -34 -45z m3898 -45 c-6 -16 -11 -20 -16 -11 -4 6 -2 19 5 27
16 20 21 12 11 -16z m1196 -49 c20 -64 14 -110 -11 -94 -22 13 -87 5 -131 -17
-25 -12 -46 -26 -46 -30 0 -15 -66 -49 -106 -56 -38 -6 -39 -5 -19 13 30 26
93 74 145 108 25 16 65 49 90 72 25 24 50 43 56 43 6 0 16 -17 22 -39z m-2248
-68 c0 -23 48 -45 104 -47 31 -1 56 2 56 7 0 4 4 6 8 3 8 -5 87 13 122 28 12
5 19 -5 30 -41 8 -27 16 -53 18 -60 4 -13 -23 -14 -334 -13 -67 1 -125 0 -130
-1 -5 -1 -11 0 -14 1 -15 6 -110 4 -110 -3 0 -4 -8 -4 -17 1 -10 4 -29 7 -43
6 -24 -1 -24 -1 5 22 17 13 62 40 102 59 39 20 91 49 115 65 l43 29 22 -21
c13 -12 23 -27 23 -35z m-3231 -16 c6 -8 8 -16 5 -20 -10 -9 -34 4 -34 19 0
18 14 18 29 1z m1119 -47 c33 -34 84 -49 107 -30 19 16 73 4 57 -12 -7 -7 -65
-12 -155 -13 -136 -2 -144 -1 -140 17 3 10 11 18 17 18 7 0 27 11 46 25 19 14
35 25 37 25 1 0 16 -13 31 -30z m1531 -10 c5 -16 16 -30 23 -30 9 -1 8 -4 -3
-10 -8 -5 -29 -8 -45 -6 -16 1 -37 -1 -46 -6 -11 -5 -18 -5 -18 1 0 5 -9 7
-20 4 -38 -10 -20 15 33 46 28 17 55 31 59 31 3 0 11 -13 17 -30z m-2225 -25
c-2 -51 -12 -64 -47 -59 -29 3 -102 15 -119 20 -5 1 -13 2 -19 3 -5 0 -7 6 -4
12 4 6 9 8 12 5 7 -7 63 25 63 36 0 4 7 5 15 2 8 -4 15 -2 15 3 0 5 19 9 43 8
40 0 42 -1 41 -30z m5052 -90 c-3 -9 4 -25 16 -37 17 -17 23 -35 24 -73 0 -27
-1 -53 -3 -57 -2 -4 -19 -2 -38 6 -63 27 -158 -11 -258 -103 -127 -117 -131
-121 -199 -135 -14 -3 -39 -19 -55 -34 -15 -16 -38 -34 -49 -40 -28 -15 -124
-25 -124 -13 0 16 101 100 188 157 46 30 107 76 136 102 28 26 74 63 101 82
28 19 57 40 65 47 111 91 213 142 196 98z m-549 -100 c-13 -14 -66 -47 -118
-73 -61 -31 -112 -66 -145 -99 -56 -56 -122 -95 -169 -100 -16 -2 -37 -7 -45
-10 -29 -12 -40 -11 -40 2 0 14 12 19 70 30 51 9 129 50 175 91 22 19 65 54
95 77 30 23 61 48 68 55 18 16 72 44 72 37 0 -3 8 -1 18 4 32 19 43 12 19 -14z
m583 -213 c0 -35 -3 -40 -47 -62 -27 -13 -54 -23 -61 -21 -18 3 -142 -60 -142
-72 0 -6 -3 -7 -7 -4 -8 9 46 67 63 67 7 0 14 3 16 8 2 4 24 18 50 31 26 13
64 38 85 57 21 19 39 34 41 34 1 0 2 -17 2 -38z m-280 -177 c-7 -9 -15 -13
-19 -10 -3 3 1 10 9 15 21 14 24 12 10 -5z m-680 -70 c0 -27 -22 -33 -50 -15
-13 8 -12 11 5 24 29 22 45 19 45 -9z m904 -147 c1 -19 -14 -30 -89 -68 -106
-53 -248 -158 -360 -266 -77 -74 -127 -107 -150 -98 -6 3 -37 -20 -70 -51 -33
-30 -65 -55 -70 -55 -6 0 -29 -17 -51 -38 -50 -49 -90 -75 -102 -68 -5 3 -22
-8 -37 -24 -15 -16 -31 -27 -35 -25 -4 2 -16 -4 -26 -13 -10 -10 -33 -23 -49
-30 -17 -7 -39 -28 -50 -50 -22 -40 -74 -73 -105 -65 -15 4 -17 9 -9 33 25 70
321 302 504 394 39 19 79 46 89 60 10 14 25 26 33 26 20 0 112 61 164 109 24
22 50 39 56 36 7 -2 17 5 23 15 6 11 17 20 25 20 8 0 15 7 15 15 0 9 6 12 15
9 18 -7 47 10 98 60 20 21 41 35 46 32 5 -3 21 7 36 22 64 64 96 70 99 20z
m-3849 -30 c2 -2 -25 -25 -58 -51 -34 -27 -91 -77 -127 -111 -92 -87 -134
-118 -225 -166 -83 -45 -147 -89 -178 -123 -10 -11 -20 -17 -23 -14 -7 7 34
77 45 77 4 0 18 10 30 21 44 41 246 181 287 199 52 23 136 100 129 118 -2 7 2
23 10 36 12 19 23 22 61 20 25 -1 47 -4 49 -6z m638 -22 c-33 -38 -67 -67
-115 -94 -27 -15 -48 -30 -48 -34 0 -5 -4 -8 -10 -8 -18 0 -261 -180 -311
-229 -8 -9 -40 -36 -69 -61 -29 -25 -58 -50 -64 -55 -47 -44 -137 -106 -164
-111 -17 -3 -38 -17 -47 -30 -8 -13 -22 -24 -31 -24 -8 0 -54 -29 -101 -65
-48 -35 -89 -63 -91 -60 -3 2 8 15 24 29 16 13 38 32 50 42 12 11 52 46 90 79
37 33 79 70 92 83 12 12 27 22 31 22 5 0 14 14 20 31 27 79 115 148 189 149
25 0 35 5 42 25 6 15 17 25 29 25 11 0 26 9 33 19 7 10 42 35 76 56 72 42 156
110 226 183 50 52 75 62 139 53 27 -3 28 -4 10 -25z m2730 20 c12 -31 -5 -55
-42 -62 -20 -4 -56 -16 -81 -26 l-44 -19 19 23 c44 49 107 97 131 98 7 0 14
-6 17 -14z m-3702 -15 c-10 -10 -29 -22 -41 -26 -21 -7 -21 -6 -5 19 11 16 27
26 41 26 24 0 24 0 5 -19z m1629 -11 c-8 -5 -79 -59 -158 -120 -79 -61 -135
-99 -126 -85 9 14 19 25 23 25 4 0 15 15 26 33 10 17 30 41 44 52 37 30 130
85 144 85 7 0 21 7 31 15 11 8 22 12 25 9 3 -3 -1 -9 -9 -14z m-310 -233 c0
-2 -10 -12 -22 -23 l-23 -19 19 23 c18 21 26 27 26 19z m1939 -34 c-21 -26
-72 -73 -80 -73 -4 0 -16 -3 -26 -7 -10 -3 11 17 47 45 71 56 79 60 59 35z
m-145 -101 c-6 -4 -16 -16 -22 -27 -11 -20 -11 -20 -12 2 0 20 11 31 35 32 6
0 5 -2 -1 -7z m-3489 -170 c-33 -32 -82 -75 -110 -97 -27 -22 -52 -42 -55 -45
-18 -19 -40 -31 -40 -22 0 14 116 128 153 150 15 9 27 20 27 24 0 4 6 8 13 8
6 0 23 9 37 20 46 36 36 21 -25 -38z m251 -275 c-20 -19 -36 -29 -36 -23 0 12
62 67 69 61 2 -2 -13 -19 -33 -38z"/>
</g>
</svg>
