<svg id="cerrado" xmlns="http://www.w3.org/2000/svg" viewBox="0 0 166.08 129.3"><defs><style>.cls-1{fill:#f18fb9;}</style></defs><path class="cls-1" d="M26.48,26.71c.07,1.69.11,3.58.11,5.68s0,4,.1,5.69.43,2.53,1.11,2.53h1.41c1.07,0,2.22,0,3.43.09s2.42.09,3.63.09a20.44,20.44,0,0,0,4.44-.35c.94-.23,1.28-.35,1-.35.4,0,.61.12.61.35s.2.35.6.35A6.32,6.32,0,0,0,44,40.7a6.4,6.4,0,0,1,1.11-.09c.94,0,1.88,0,2.83.09s2,.09,3,.09h5.25a12.61,12.61,0,0,1,2,.17,11.41,11.41,0,0,0,2,.18h2.82a6.61,6.61,0,0,1,2.12.26,9.5,9.5,0,0,0,1.72.44q5.44-.53,11.7-1t12.72-.44c.8,0,1.68,0,2.62.09s1.75.08,2.42.08a24,24,0,0,0,3-.17,23.93,23.93,0,0,1,3-.18c2.29,0,4.37.09,6.26.27s3.83.26,5.85.26c1.48,0,2.89,0,4.24-.09s2.69-.09,4-.09a.58.58,0,0,0,.4.18,1.83,1.83,0,0,0,.5-.09,3.49,3.49,0,0,1,.91-.09,8.11,8.11,0,0,1,1.21.09,9.88,9.88,0,0,0,1.42.09c.67,0,1.74-.06,3.22-.18l4.75-.35,5.24-.34c1.82-.12,3.33-.24,4.55-.36a11.34,11.34,0,0,1,4.84,1,25.09,25.09,0,0,1,3.93,2.28,27.58,27.58,0,0,1,3.74,3.32,11.62,11.62,0,0,1,1.31,2,24,24,0,0,0,1.31,2.18c.13,0,.2-.29.2-.87v-1.4a51.08,51.08,0,0,1,.3-5.43,19.24,19.24,0,0,1,1.12-4.89,3.87,3.87,0,0,1,1.2,2.62,24.21,24.21,0,0,1,.21,2.62v2.1c.13,1.4.23,3,.3,4.64s.1,3.41.1,5.16,0,3.5-.1,5.25-.17,3.39-.3,4.9a2.33,2.33,0,0,0,1.21.17H167c1.21,0,1.82.3,1.82.88,0,.82-.74,1.22-2.22,1.22h-3.43V70q0,9.45-.1,20.82t-.71,21.87a18.22,18.22,0,0,0-.2,2.71,10.05,10.05,0,0,1-.4,2.71c.13.24.53.35,1.2.35h5.25c1.21,0,1.89.41,2,1.23a2.78,2.78,0,0,1-2,.79l-2.82.17a14.58,14.58,0,0,0-2.52.35c-.75.17-1.11.5-1.11,1v3.85c0,1.05,0,2.1-.11,3.15a11.29,11.29,0,0,1-.5,2.8v.35a.4.4,0,0,1-.3.44,1.91,1.91,0,0,0-.71.44,11.62,11.62,0,0,1-1,3.06,9.26,9.26,0,0,1-1.41,2c-.54.58-1.11,1.17-1.72,1.75a10.11,10.11,0,0,0-1.71,2.27,11.25,11.25,0,0,0,3.13.27,15.76,15.76,0,0,1,3.53.26h.4a24.55,24.55,0,0,1,2.83.17,25.41,25.41,0,0,1,2.82.53h.81c.4,0,.6.17.6.52-1.48.12-3,.24-4.64.35s-3.09.18-4.44.18-2.45,0-3.73-.09-2.52-.09-3.73-.09q-5.25,0-14.94.79t-23.81.79q-3.43,0-8.58-.44t-10.19-.44a11.08,11.08,0,0,0-2.42.27,10.91,10.91,0,0,1-2.22.26l-1.92-.35a11,11,0,0,0-2.12-.18H82.49q-5.65-.34-12.52-.61T57.06,144a5.19,5.19,0,0,0-1.52.17,6.6,6.6,0,0,1-1.91.18H53c-.27,1.63-.47,3.2-.6,4.72s-.34,3-.61,4.38c-.4-.12-.64-.65-.71-1.58s-.17-1.95-.3-3.06a20,20,0,0,0-.6-3.06c-.27-.94-.74-1.4-1.42-1.4a121,121,0,0,0-13.52.79,123.25,123.25,0,0,1-13.52.78,6.4,6.4,0,0,1-1.11-.09,6.36,6.36,0,0,0-1.11-.08,5.18,5.18,0,0,0-.91.08,6.23,6.23,0,0,1-1.11.09,5.26,5.26,0,0,1-1.11-.17c-.47-.12-.7-.3-.7-.53,0-.46.84-.73,2.52-.78A42.48,42.48,0,0,0,23,144a1.25,1.25,0,0,0-.8-.18h-2c0-.23,1-.49,2.92-.78a46.46,46.46,0,0,1,6.76-.44h1l.21-.18a2.83,2.83,0,0,0-.81-1.48,12.07,12.07,0,0,0-1.82-1.75A13.25,13.25,0,0,0,26.59,138q-.81-.43-.81-.09l.2-.35a9.21,9.21,0,0,1-2.12-2.36c-.34-.64-.5-.79-.5-.43v-.18a6.54,6.54,0,0,1-.91-2.19,3.37,3.37,0,0,0-.3-1.13v-.53a1.78,1.78,0,0,0-.21-.61,2.81,2.81,0,0,1-.2-1.14c0-1.28.07-2.68.2-4.2s.21-3,.21-4.55a6.27,6.27,0,0,0-2-.35h-2c-1.08,0-2.05,0-2.93.09s-1.78.09-2.72.09c-1.48,0-2.29-.47-2.42-1.4s.87-1.23,2.62-1.23h9.28c0-1.51,0-2.91-.1-4.2s-.1-2.56-.1-3.84c0-.59,0-1.23.1-1.93s.1-1.4.1-2.1c0-.11,0-.17-.1-.17s-.1-.06-.1-.18a.51.51,0,0,1,.2-.35c0-.11.07-.17.21-.17a.34.34,0,0,0-.11-.27.63.63,0,0,1-.1-.43c0-.24,0-.35.1-.35s.11-.12.11-.35l-.21-.18V102c0-.24,0-.35.1-.35s.11-.12.11-.35q-.21,0-.21-.18c0-.11,0-.14.1-.09s.11,0,.11-.26a.46.46,0,0,1-.21-.35l.21-.17q0-.18-.21-.18v-.17l.21-.18a.33.33,0,0,0-.11-.26.66.66,0,0,1-.1-.44.63.63,0,0,1,.1-.43.34.34,0,0,0,.11-.27l-.21-.17V97.3a.65.65,0,0,1,.1-.43.61.61,0,0,0,.11-.44h-.21c0-.12,0-.15.1-.09s.11,0,.11-.26q-.21,0-.21-.18a.48.48,0,0,1-.2-.35c0-.35.14-.52.41-.52,0-.23,0-.32-.11-.26s-.1,0-.1-.09l.21-.18a2.84,2.84,0,0,0-.31-.78,2.4,2.4,0,0,1-.3-1,6.27,6.27,0,0,1,.4-2.27,7.93,7.93,0,0,0,.41-2.8,11.49,11.49,0,0,0-.2-2.1,9.86,9.86,0,0,1-.21-1.92,6.88,6.88,0,0,1,.21-1.58,10.7,10.7,0,0,0,.2-2.27c0-.82,0-1.64-.1-2.45a5.48,5.48,0,0,0-.71-2.28,5,5,0,0,0,.61-2.53V69.83a1,1,0,0,1-.41-.08,1.51,1.51,0,0,0-.6-.09,10.19,10.19,0,0,0-1.31.09,12.25,12.25,0,0,1-1.52.08,5.55,5.55,0,0,1-1.92-.26c-.47-.17-.7-.61-.7-1.31s.87-1.05,2.22-1.05c.67,0,1.34,0,2,.09s1.34.08,2,.08q.21-.16.21-.87V65.46c.13-2,.23-4.29.3-6.91s.1-5,.1-7.09c0-.35.17-.52.5-.52a1.15,1.15,0,0,0,.91-.53c0-.58,0-1.28.1-2.1s.1-1.57.1-2.27a4,4,0,0,0-.4-1.84,1.46,1.46,0,0,0-1.41-.79H15.69a7.3,7.3,0,0,1-2-.35H7.21c-1.07,0-1.61-.17-1.61-.52H4.79c-.4,0-.6-.18-.6-.53s0-.32.1-.26.23,0,.5-.09c0-.35.2-.52.61-.52a1.83,1.83,0,0,1,.5.09,2.52,2.52,0,0,0,.71.08c.94-.11,2.15-.23,3.63-.35,1.21-.11,2.62-.2,4.24-.26s3.49-.09,5.65-.09H24a10.72,10.72,0,0,0-.1-1.57,10.63,10.63,0,0,1-.1-1.57c0-1.52.07-3,.2-4.55s.31-2.92.51-4.2.5-2.8.91-4.55C26.05,24.17,26.42,25,26.48,26.71ZM26,126.52v1.93a.94.94,0,0,0,.2.7,3.41,3.41,0,0,1,1.31-2.8c.88-.7,1.32-1.17,1.32-1.4s-.07-.18-.21-.18a2,2,0,0,1-1.11,1.14C27,126.08,26.52,126.29,26,126.52Zm13.12-25a46.77,46.77,0,0,0-3.94,3.68,5.67,5.67,0,0,0-1,1.4,2.09,2.09,0,0,0-.1.61c0,.17-.4.61-1.21,1.31-.54,1.63-1.18,2.63-1.92,3a9.27,9.27,0,0,0-1.31.7c0,.59-.54,1.35-1.61,2.28a12.18,12.18,0,0,0-1.82,1.75v1.22h1.41c.27,0,.78-.32,1.52-1s1.11-1.08,1.11-1.31v-.35c0-.12.06-.15.2-.09s.2-.09.2-.44a6.9,6.9,0,0,1,1.11-1.48,15.79,15.79,0,0,1,1.52-1.66,9.21,9.21,0,0,0,1.41-1.58,4,4,0,0,1,1.21-1.22.48.48,0,0,1-.2-.35c0-.12.13-.29.4-.53a4.26,4.26,0,0,1,.51-.7,7.69,7.69,0,0,1,.7-.7c0-.23.1-.29.3-.17s.31,0,.31-.35a3.68,3.68,0,0,1,1.71-2.89c1.14-.88,1.65-1.25,1.52-1.14a.46.46,0,0,1-.21-.35,4.51,4.51,0,0,1,.91-1.14c.61-.63.91-1.07.91-1.31s-.07-.17-.2-.17a11,11,0,0,1-1.82,1.57A8.93,8.93,0,0,0,39.1,101.5ZM27.19,43.41a16.34,16.34,0,0,1-.1,1.93,16.16,16.16,0,0,0-.1,1.92c0,.47.13.7.4.7a4.48,4.48,0,0,1,2-2.36,8.26,8.26,0,0,0,2.42-2,3.46,3.46,0,0,0-2.22-.53A6.44,6.44,0,0,0,27.19,43.41Zm1.41,15.4a8.65,8.65,0,0,0-1.41,1.4,1.46,1.46,0,0,0-.2.7l.2.53a1.73,1.73,0,0,0,1-.53,12.71,12.71,0,0,0,1.21-1.22,6,6,0,0,0,1.41-1.93l3.84-3.32a24.21,24.21,0,0,0,2-1.93v-.17l-.21-.18a40.79,40.79,0,0,1-4,3.41A39.61,39.61,0,0,0,28.6,58.81ZM32,69.48a21.23,21.23,0,0,1-3.33,3,3.59,3.59,0,0,0-1.71,3c0,.59.13.88.4.88a33.58,33.58,0,0,0,3.13-3,11.67,11.67,0,0,0,1.31-1.75,2.4,2.4,0,0,0,.41-1l2.62-2.27a9.49,9.49,0,0,0,1.61-1.75.49.49,0,0,1-.2-.35c0-.23.2-.38.61-.44s.6-.2.6-.44c-.13,0-.2,0-.2-.17-.81.58-1.61,1.22-2.42,1.92ZM27.19,82.61a1.66,1.66,0,0,1-.1.61,1.63,1.63,0,0,0-.1.61c0,.24.13.35.4.35q2.63-3.32,3.74-4.46a9.6,9.6,0,0,1,1.41-1.31c.2-.12.27-.12.2,0s-.1-.06-.1-.53v-.17h.2l.2-.18c.14-.11.21-.2.21-.26s.06-.15.2-.26a2.52,2.52,0,0,1,.6-.7c0-.12-.07-.18-.2-.18Q32,77.71,30.42,79.28C29.34,80.33,28.27,81.44,27.19,82.61Zm.2,8.39a1.89,1.89,0,0,1-.2.62,2,2,0,0,0-.2.78c0,.12.13.3.4.53a9.1,9.1,0,0,1,1.31-3,4.26,4.26,0,0,1,1.22-1.13c.33-.18.57-.24.7-.18s.13.09,0,.09,0-.18-.1-.18-.1,0-.1-.17.17-.26.5-.44.51-.38.51-.61-.07-.17-.2-.17a18.32,18.32,0,0,0-1.92,1.92A19.33,19.33,0,0,1,27.39,91Zm.81-24.67a4.31,4.31,0,0,1-.71.53.57.57,0,0,0-.3.52c0,.12.07.18.2.18.94,0,1.42-.29,1.42-.88v-.35c0-.11.1-.17.3-.17s.3-.06.3-.18a16.91,16.91,0,0,0,1.72-1.75A4.48,4.48,0,0,0,32,63v-.18c-.67.59-1.31,1.17-1.91,1.75S28.87,65.75,28.2,66.33Zm2.62,71.91a2.48,2.48,0,0,0,.91,1.58,5.89,5.89,0,0,0,1.41.79,3.55,3.55,0,0,0,1.11.26h1a.9.9,0,0,1,.51.09c.06.06.23.08.5.08h.41v-1.22c0-.35-.07-.53-.21-.53a1.44,1.44,0,0,1-1,.35c-1.49,0-2.29-.2-2.43-.61a3.16,3.16,0,0,0-1-1.31A1.43,1.43,0,0,1,30.82,138.24Zm5-90.28c-2.15,1.87-3.3,3-3.43,3.5s-.14.47,0,.35a3.8,3.8,0,0,0,2-.87c.8-.58,1.58-1.2,2.32-1.84a20.68,20.68,0,0,0,1.81-1.75c.47-.52.71-.73.71-.61a16,16,0,0,1-1.92-.09C36.91,46.59,36.4,47,35.87,48Zm6.86,79.09a2.75,2.75,0,0,1-1.41,2.45c-1,.58-1.42,1.05-1.42,1.4,0,.11.07.17.21.17a24.2,24.2,0,0,1,2.52-2.54A25.09,25.09,0,0,0,45.15,126h-.6a2.24,2.24,0,0,0-1.32.35C42.9,126.58,42.73,126.81,42.73,127.05ZM40.11,44.64a5.16,5.16,0,0,1,.9.09,5.18,5.18,0,0,0,.91.08,2.26,2.26,0,0,0,1.82-.7H41.52C40.71,44.11,40.24,44.29,40.11,44.64Zm4,4.55a21.61,21.61,0,0,1-2.22,2,7.26,7.26,0,0,0-1.81,2,28.26,28.26,0,0,0,4-2.45q2.22-1.57,2.22-3.15a2.19,2.19,0,0,0-1.41.7A5.86,5.86,0,0,1,44.14,49.19Zm-.8,21.69c0,.47-.38.88-1.11,1.23s-1.11.76-1.11,1.22c0,.12.06.18.2.18a10.88,10.88,0,0,1,1.21-1.23,4.79,4.79,0,0,1,1.61-.87c0-.12,0-.18-.1-.18s-.1,0-.1-.17a.69.69,0,0,1,.2-.53.62.62,0,0,0,.2-.52c0-.12-.06-.18-.2-.18a.56.56,0,0,1-.4.53A.56.56,0,0,0,43.34,70.88Zm-1.42,70.69h1.21A.71.71,0,0,1,43,141c.07-.18,0-.32-.3-.44a.56.56,0,0,1-.4.52A.58.58,0,0,0,41.92,141.57Zm2.22-57.91V84c0,.35-.3.78-.91,1.31s-.9.9-.9,1.14a.62.62,0,0,0,.4.17,2.56,2.56,0,0,1,1.21-1,5.24,5.24,0,0,0,1.41-.87V83.13c0-.35-.07-.52-.2-.52a2.43,2.43,0,0,1-.5.61ZM42.73,57.41a2.17,2.17,0,0,1,.91-.7c.47-.23.7-.46.7-.7a.62.62,0,0,0-.2-.52,3.46,3.46,0,0,1-.91.87c-.47.35-.7.64-.7.88S42.59,57.41,42.73,57.41Zm.4,7.17c0-.35.21-.58.61-.7a1.14,1.14,0,0,0,.81-.69c-1.08,0-1.62.35-1.62,1C42.93,64.47,43,64.58,43.13,64.58Zm0,29.22a2,2,0,0,0,1.11-.52,1.44,1.44,0,0,1,1.11-.35V91.7c0-.35-.07-.52-.2-.52a4.57,4.57,0,0,1-1,1.22A4.17,4.17,0,0,0,43.13,93.8Zm0,11a1.77,1.77,0,0,1,1-.18,5.27,5.27,0,0,1,.91.09,5.27,5.27,0,0,0,.91.09c0-.24,0-.82-.1-1.75a2.73,2.73,0,0,0-.51-1.75,8.77,8.77,0,0,1-1.11,1.75A8.24,8.24,0,0,0,43.13,104.83Zm2,4L45,109c0,.11,0,.17.1.17s.1.06.1.18a.76.76,0,0,1-.5.17c-.2,0-.31.06-.31.17s0,.18.11.18.1.06.1.18a1.5,1.5,0,0,1-.51.52c-.2.12-.3.23-.3.35s.07.18.2.18a2.61,2.61,0,0,1,1.11-.53,5.19,5.19,0,0,0,1.31-.52,2.5,2.5,0,0,1-.2-1.14c0-.53-.13-.79-.4-.79,0,.24-.07.38-.2.44A1.66,1.66,0,0,0,45.15,108.85Zm-1-32.19.51-.44a.8.8,0,0,0,.3-.61.69.69,0,0,0-.2-.53,1,1,0,0,1-.41.7,1,1,0,0,0-.4.7C43.94,76.6,44,76.66,44.14,76.66Zm1.21,40.24c.68,0,1-.23,1-.7,0-.23-.13-.35-.4-.35a.41.41,0,0,1-.3.44.4.4,0,0,0-.31.43Zm2-69.29v-.35c0-.35-.2-.52-.6-.52Q46.77,47.61,47.37,47.61Zm3.84-3.5H49.39c-.54,0-.88.12-1,.35a2.31,2.31,0,0,0,1.21.18A2,2,0,0,0,51.21,44.11Zm-2.43,3.33c.14-.23.27-.32.41-.26s.2,0,.2-.27-.27-.17-.81-.17C48.58,47.21,48.65,47.44,48.78,47.44Zm9.49,3.67A44.85,44.85,0,0,0,54.13,53a3.37,3.37,0,0,0-1.21.87.36.36,0,0,0,.1.44c.13.12,0,.35-.4.7a9.36,9.36,0,0,1-2.12,1.66c-.88.53-1.31,1.08-1.31,1.67,0,.35.06.52.2.52a2.14,2.14,0,0,1,.91-1.49,11.48,11.48,0,0,1,2-1.4c.73-.4,1.71-.9,2.92-1.48.13,0,.2,0,.2.08s.07.09.21.09.67-.35,1.21-1,1-1.05,1.41-1.05h.4a4.27,4.27,0,0,0,1.21-1.4q.21,0,.21.09c0,.06.06.09.2.09s.57-.58,1.31-1.4,1.24-1,1.51-.7a.49.49,0,0,1-.2-.35v-.18a8,8,0,0,1-2.32,1.4A24.9,24.9,0,0,0,58.27,51.11Zm-5.25,91h2.22c1.08,0,2.12,0,3.13.09s1.85.09,2.52.09.81-.23.81-.7a.62.62,0,0,0-.4-.18,5.09,5.09,0,0,0-.91.09,7.81,7.81,0,0,1-1.31.09,4.44,4.44,0,0,0-.91-.88,1.37,1.37,0,0,1-.51-1.22v-.35c0-.23-.13-.35-.4-.35a26.75,26.75,0,0,1-2.12,1.66C54.4,141,53.69,141.51,53,142.09Zm72.85-74.36a1.83,1.83,0,0,0-.5.09,2.5,2.5,0,0,1-.71.09q-9.89,0-21.19-.61t-22.6-.62a39.31,39.31,0,0,0-4.54.27,37.19,37.19,0,0,1-3.93.26,1.53,1.53,0,0,1-.61-.09,1.6,1.6,0,0,0-.61-.09,7.94,7.94,0,0,1-3.53,1.23c-1.55.23-3.16.44-4.84.61s-3.36.32-5.05.44a21.17,21.17,0,0,0-4.33.7q0,11,.2,21.61t.2,20.73V114a4.07,4.07,0,0,1-.4,1.66l3,1.32a14.36,14.36,0,0,1,2.63,1.48q5.85-.52,12-.7t12.41-.17q9.29,0,18.57.17t18,.18h2.42a8.74,8.74,0,0,0,2.42-.35l.21.17a2.24,2.24,0,0,0,1.31-.52,8,8,0,0,0,1.31-1.23c.4-.46.77-.9,1.11-1.31a2.11,2.11,0,0,0,.5-.79,1.66,1.66,0,0,1,.11-.61,1.85,1.85,0,0,0,.1-.61q0-4.2-.21-9.1c-.13-3.26-.23-6.62-.3-10.06s-.17-6.79-.3-10.06-.2-6.3-.2-9.1V72.11a13.22,13.22,0,0,0-.2-2.54C128.16,68.93,127.35,68.32,125.87,67.73ZM54.64,120.22c0,.24.4.35,1.21.35a1.13,1.13,0,0,0,.6-.35A5,5,0,0,0,55,119.7a2.67,2.67,0,0,1-1.21-.53Q53.83,120.22,54.64,120.22Zm3.83-72.78a.5.5,0,0,1,.51-.09c.2.06.3,0,.3-.26v-.18c-.68,0-1,.24-1,.7Zm10.7,94.13a5,5,0,0,0,2.32-.7c.87-.47,1.31-.93,1.31-1.4l-.4-.35a3.23,3.23,0,0,1-1.62,1.22A3.23,3.23,0,0,0,69.17,141.57Zm.4-81h.2c.81,0,1.21-.17,1.21-.52l-.4-.35c0,.23-.17.38-.51.43S69.57,60.33,69.57,60.56Zm4.64,66.49a7.09,7.09,0,0,1-1.21.78c-.54.3-.81.56-.81.79s.07.18.21.18a11,11,0,0,1,2.11-1.75,9.41,9.41,0,0,0,1.92-1.58H76a1.13,1.13,0,0,0-1.11.61A3.09,3.09,0,0,1,74.21,127.05Zm2.22-80a8.61,8.61,0,0,1-1.81,1.49c-.68.41-1.35.84-2,1.31v.17l-.2.18c0,.12.06.17.2.17a10.76,10.76,0,0,1,2.82-1.75,10.72,10.72,0,0,0,2.83-1.75h-.61A1.51,1.51,0,0,0,77,47,1.6,1.6,0,0,1,76.43,47.09ZM81.88,59a4.29,4.29,0,0,1-2,1c-.67.11-1,.35-1,.7,1.75,0,2.83-.29,3.23-.88a5.09,5.09,0,0,1,2.22-1.57c0-.12-.07-.18-.2-.18a5.16,5.16,0,0,0-1.11.35A4.69,4.69,0,0,0,81.88,59Zm0,68.06a2.91,2.91,0,0,1-.61.35c-.27.11-.4.23-.4.35s.07.17.2.17a12.51,12.51,0,0,1,2.12-1.49A7.45,7.45,0,0,0,85.11,125h-.4a2.1,2.1,0,0,0-.81.17,2,2,0,0,1-.81.18.86.86,0,0,1-.6-.18,1.58,1.58,0,0,1-.21,1A3.22,3.22,0,0,0,81.88,127.05Zm1-77.69a.66.66,0,0,0-.2.53l.2-.18h.2a.89.89,0,0,0,.71-.35,6.61,6.61,0,0,1,.5-.52.59.59,0,0,0,.41.17,15.45,15.45,0,0,1,1.41-.7,4.1,4.1,0,0,0,2-1.4,4.21,4.21,0,0,0-2.73,1.14A4.72,4.72,0,0,1,82.89,49.36Zm14.53-2.45-3.84,2.37a11.7,11.7,0,0,0-2.42,1.66,7.66,7.66,0,0,0,4.65-1.49c1.34-1,1.94-1.49,1.81-1.49a2.08,2.08,0,0,1,1.11-.43,1,1,0,0,0,.91-.62Zm-5.25,80.14a4.3,4.3,0,0,1,1.11-1,4.09,4.09,0,0,0,1.11-1,5,5,0,0,0-1.71.26c-.48.18-.71.62-.71,1.32C92,126.93,92,127.05,92.17,127.05Zm.2-66.49h.21c.67,0,1-.17,1.11-.52s.43-.53,1.11-.53c0-.11-.07-.17-.21-.17a2.92,2.92,0,0,0-1.21.43A2.78,2.78,0,0,0,92.37,60.56Zm8.28,66.14q-.21,0-1.11.87c-.61.59-.91,1-.91,1.23s.07.17.2.17a2.3,2.3,0,0,1,.71-1.57,1.7,1.7,0,0,1,1-.35,3.4,3.4,0,0,1,.8.08c.21.06.31-.08.31-.43a.78.78,0,0,1,.6-.09.37.37,0,0,0,.41-.09c0-.11,0-.17-.1-.17s-.11-.06-.11-.18.17-.14.51-.09.5,0,.5-.26-.4-.35-1.21-.35h-1.61ZM98.83,141c.13,0,.2,0,.2.09s.07.09.21.09c.53,0,.8-.18.8-.53s-.13-.35-.4-.35v.18c0,.23-.14.32-.4.26S98.83,140.81,98.83,141Zm7.27-81h2.62V59c0-.35-.14-.53-.4-.53a1.91,1.91,0,0,1-1.11.7A1.7,1.7,0,0,0,106.1,60Zm10.69,81.53-.2.17H116a2.12,2.12,0,0,1-1.42.53,3.72,3.72,0,0,1-.81-.09,3.57,3.57,0,0,0-.8-.09c-.68,0-1.65.06-2.93.18a16.67,16.67,0,0,0-2.52.35h-.61c-.13,0-.2.06-.2.17,1.48,0,3.13-.08,5-.26s3.46-.26,4.94-.26a.45.45,0,0,1,.3.09.46.46,0,0,0,.31.08c.26,0,.4-.11.4-.35S117.33,141.57,116.79,141.57Zm-5.85-14.87c-.27.23-.61.49-1,.78s-.6.56-.6.79.06.18.2.18a4.85,4.85,0,0,1,1.71-1.14c.88-.41,1.31-.85,1.31-1.31H112c-.4,0-.61.08-.61.26S111.21,126.58,110.94,126.7Zm-.4-79.09a.65.65,0,0,1-.41.18.64.64,0,0,0-.4.17c0,.12.07.18.2.18a2.77,2.77,0,0,1,1-.53,2.62,2.62,0,0,0,1-.52h-.2A1.83,1.83,0,0,0,110.54,47.61Zm-.41,93.26a5.27,5.27,0,0,1,.91.09c.34.06.51-.15.51-.62.13,0-.07-.11-.61-.35v.18c0,.23-.14.35-.4.35S110.13,140.64,110.13,140.87ZM122,125.47c-.54.59-1.25,1.29-2.12,2.1s-1.75,1.61-2.62,2.36L115,132c-.68.58-1,.93-1,1.05a.45.45,0,0,0,.2.34c0-.11.17-.31.5-.61a11.43,11.43,0,0,1,1-.78l.91-.62c.27-.17.33-.2.2-.08a2.63,2.63,0,0,1,1-.53c.41-.11.47-.17.2-.17h.61c1.21-1.05,2.08-1.78,2.62-2.19s.94-.7,1.21-.88a1.35,1.35,0,0,1,.61-.26c.13,0,.4-.17.81-.52a.62.62,0,0,0,.4.17c.27,0,.47-.17.6-.52a2.29,2.29,0,0,1,.61-.88Zm-6.66-81.36c-.13,0-.2.06-.2.18s.07.17.2.17c1.08-.11,2.45-.17,4.14-.17s2.52-.23,2.52-.7a15.42,15.42,0,0,0-2.93.26,14.54,14.54,0,0,1-2.92.26ZM116,60h2.62v-.18c0-.23,0-.35.1-.35s.1-.11.1-.35v-.35a5.46,5.46,0,0,1-1.61.44A1.5,1.5,0,0,0,116,60Zm7.87-17-.41.18h-.2c0,.12.13.17.4.17a2.93,2.93,0,0,1,1.82.62,3.23,3.23,0,0,0,2,.61,11.81,11.81,0,0,0,2.52-.35,2.56,2.56,0,0,0,1.92-1.23Zm3.63,97.46a.46.46,0,0,1-.31-.09.43.43,0,0,0-.3-.09h-.2c0,.24-.13.35-.4.35a2,2,0,0,0-.81.18V141l-.2.35h-.61c-.13,0-.2.06-.2.18h2.42a1.74,1.74,0,0,0,1-.18C127.62,141.28,127.49,141,127.49,140.52Zm1-81.36a1.84,1.84,0,0,1-.91.44c-.34.06-.51.2-.51.44s.27.38.81.43a13,13,0,0,0,1.41.09c0-.35.31-.73.91-1.14s.91-.72.91-1a.64.64,0,0,0-.4-.17,5.45,5.45,0,0,1-1.21.52A9.51,9.51,0,0,0,128.5,59.16Zm5.85,82.41h2.22v-.88c0-.23-.07-.35-.2-.35a2.61,2.61,0,0,1-1.11.53A1.18,1.18,0,0,0,134.35,141.57Zm3-96.41a3.35,3.35,0,0,1,.9.09,1.89,1.89,0,0,0,.51.09h.2a4.1,4.1,0,0,0,1.92-.61c.74-.41,1.11-.67,1.11-.79v-.35h-.81a11.4,11.4,0,0,1-1.61-.09,9.88,9.88,0,0,0-1.42-.09c-.67,0-1,.21-.9.62A7.87,7.87,0,0,1,137.38,45.16Zm17.55,67.54c-2.69,1.28-4.47,2.19-5.35,2.71a9.45,9.45,0,0,0-1.81,1.31,6.27,6.27,0,0,1-1.21,1c-.48.29-1.58.84-3.33,1.66v.17l-.2-.17a3.77,3.77,0,0,0-1.82.44,5.11,5.11,0,0,0-1.31,1,7.66,7.66,0,0,0-.81,1c-.2.29-.23.38-.1.26a3,3,0,0,0-.6.09c-.28.06-.41.2-.41.44a.59.59,0,0,0,.41.17,3.22,3.22,0,0,1,1.21-.7,3.9,3.9,0,0,0,1.41-.87l.2.17.2-.17v-.18H142v-.17h.6c.41-.35.54-.53.41-.53h.6l-.2-.17q0-.18.3-.09c.2.06.31,0,.31-.09v-.17h.6q4.44-2.1,6.06-3c1.07-.58,1.78-1,2.12-1.22a3.15,3.15,0,0,1,.8-.44c.2-.06.91-.2,2.12-.44v-1.75a.94.94,0,0,0-.2-.7Zm-.6-63.86a5.72,5.72,0,0,0-2.63.52,3.55,3.55,0,0,0-1.91,2.1c-.07.24-.1.24-.1,0h-.61a8.51,8.51,0,0,0-2.12,1.4c-.47.47-.77.7-.91.7l-.4-.17a29.33,29.33,0,0,1-2.72,2.18,2.35,2.35,0,0,1-1,.44,2.15,2.15,0,0,0-.61.09,5.62,5.62,0,0,0-1.31,1l-.4.35-.41.18-.2-.18c-.4.35-.6.59-.6.7s.06.18.2.18a5.89,5.89,0,0,1,2.92-1.58,4.22,4.22,0,0,0,2.32-1.05.63.63,0,0,0,.41.18c.27,0,.33-.06.2-.18s-.14-.17,0-.17h.61v-.35a.62.62,0,0,0,.4.17l.2-.17c-.14,0-.2-.06-.2-.18h.81c-.14,0-.21-.06-.21-.17h.61v-.35a4.56,4.56,0,0,0,1.41-.27,15.26,15.26,0,0,0,1.62-.61A9.46,9.46,0,0,0,150.9,53c.27-.18.33-.26.2-.26a15.67,15.67,0,0,0,2.82-.88,16.22,16.22,0,0,1,2.63-.87A2.59,2.59,0,0,0,154.33,48.84ZM140.61,78.93a10.33,10.33,0,0,1-1.52.44c-.34.06-.5.55-.5,1.49h.2a2.33,2.33,0,0,0,2.22-.62c.4-.52.47-.78.2-.78h.61a5.94,5.94,0,0,1,.8-.53c.41-.23.61-.46.61-.7H143c-.14,0-.2,0-.2-.09s-.07-.08-.21-.08a1.8,1.8,0,0,1-.9.43A3.5,3.5,0,0,0,140.61,78.93Zm5-32c-1.61.35-2.62.88-3,1.58a1.69,1.69,0,0,1-1.41,1l-.2-.18c-.27.24-.37.41-.3.53s0,.17-.31.17-.2,0-.2-.08-.07-.09-.2-.09c-.14.58-.34.82-.6.7s-.41,0-.41.35a18.36,18.36,0,0,0,1.92-.79c.6-.29.84-.44.7-.44A37.73,37.73,0,0,1,145.45,48c1.48-.58,2.69-1.1,3.63-1.57a10.58,10.58,0,0,0-1.51-.53,7.75,7.75,0,0,0-1.72-.17V46c0,.23,0,.35-.1.35s-.1.12-.1.35Zm-1,45.84c-.67.24-1.28.44-1.81.62s-.75.26-.61.26l-.4-.18a7.19,7.19,0,0,1-1.92.53c-.34,0-.5.7-.5,2.1a3.48,3.48,0,0,0,1.71-.53,16.08,16.08,0,0,0,1.61-1,6.79,6.79,0,0,0,1-.87c.2-.23.24-.29.1-.18a.63.63,0,0,0,.41.18l.2-.18.4-.35.61-.52c0-.12-.07-.18-.2-.18S145.05,92.64,144.64,92.75ZM140.4,103.6c0-.23.07-.38.21-.44a1,1,0,0,0,.4-.43h-.2c-.54,0-.81.17-.81.52S140.13,103.6,140.4,103.6Zm14.13.7c0,.12-.07.18-.2.18a.63.63,0,0,0-.41-.18,1.12,1.12,0,0,0-.3.53.47.47,0,0,1-.5.35l-.2-.18q-3.43,3-4.44,3.15t-.81.18c-1.21.58-2.19,1-2.93,1.39a18.17,18.17,0,0,0-2,1.14q-.9.61-.9,1h.2c1.48-.58,2.45-1,2.92-1.22l.91-.44c.14-.06.23-.06.31,0s.36,0,.9-.26a8.93,8.93,0,0,1,2.22-1.4,16.31,16.31,0,0,1,2.22-.79c.67-.17,1.18-.29,1.52-.35s.3-.08-.1-.08c1.88-.59,2.82-1.11,2.82-1.58v-2.1a1,1,0,0,0-.81.26A2.5,2.5,0,0,1,154.53,104.3ZM151.3,78.06c0,.11-.07.17-.2.17l-.2-.17c-2.42,1.16-4.17,2-5.25,2.62a9.56,9.56,0,0,0-2,1.31c-.27.3-.3.44-.1.44s.3-.06.3-.17c0,.11.07.17.21.17,1.47-.58,2.89-1.11,4.23-1.57s2.76-.94,4.24-1.4V77.88c0-.35-.07-.52-.2-.52A1.19,1.19,0,0,1,151.3,78.06Zm-.4-13.3-.2.17-.41-.17a12.05,12.05,0,0,1-1.21.87l-1.61,1.05a7.7,7.7,0,0,1-2,1.23l-.4-.18c-.41.35-.61.59-.61.7s.07.18.2.18a14.87,14.87,0,0,1,4-2.71,7.65,7.65,0,0,1,2.52-.62,5.12,5.12,0,0,1,1.21.09q.3.09.3-1a.67.67,0,0,0-.1-.35.67.67,0,0,1-.1-.35A1.93,1.93,0,0,0,150.9,64.76ZM144.64,88.9c1.48-.35,2.89-.7,4.24-1.05s2.69-.75,4-1.22a2.61,2.61,0,0,1-.1-1.31,1.24,1.24,0,0,0-.31-1.14,19.52,19.52,0,0,1-3.93,2.36A20.56,20.56,0,0,0,144.64,88.9Zm9.28,31.85c0,.12-.37.38-1.1.79l-2.53,1.39c-.94.53-1.92,1-2.92,1.49a19,19,0,0,0-2.32,1.23v1.4c0,.23.06.35.2.35s.06-.15.2-.09a.35.35,0,0,0,.4-.09l.61-.52a2.21,2.21,0,0,1,.91-.18,1.31,1.31,0,0,0,.9-.35c-.13,0-.2-.06-.2-.17h.61a12.58,12.58,0,0,1,4.84-2.45c2-.59,3-1,3-1.4v-.35c0-.23,0-.35-.1-.35s-.1-.12-.1-.35v-.35h-2.43Zm-7.46-47.59a22.33,22.33,0,0,0,3-.88,21,21,0,0,1,3-.87V70c0-.35-.07-.53-.2-.53a21.07,21.07,0,0,1-2.93,1.84A22,22,0,0,0,146.46,73.16Zm5.85-28.52c-.4,0-.64-.12-.71-.35a.47.47,0,0,0-.5-.35h-.2c0,.23-.1.32-.31.26s-.3,0-.3.26h.41a1.35,1.35,0,0,1,.7.18,1,1,0,0,0,.51.17A.61.61,0,0,0,152.31,44.64ZM151.7,94a1.93,1.93,0,0,1,.91-.44.56.56,0,0,0,.51-.61,8.89,8.89,0,0,1-1,.35c-.41.12-.61.29-.61.52S151.57,94,151.7,94Zm.21-35.69a5.4,5.4,0,0,0,1-.53,3.66,3.66,0,0,0-.81.09c-.27.06-.41.15-.41.26S151.77,58.29,151.91,58.29Zm2.62,34.46h1.21v-.87c0-.23-.07-.35-.2-.35a1.83,1.83,0,0,0-.61.17.69.69,0,0,0-.4.7Zm.4-29.21h.21c.26,0,.4-.18.4-.53s-.14-.7-.4-.7a1.09,1.09,0,0,0-.41.88A.48.48,0,0,1,154.93,63.54Zm.21,19.94a2.07,2.07,0,0,1-.21,1,1.82,1.82,0,0,0-.2.88c0,.46.27.7.81.7.13,0,.2-.24.2-.7v-2.1a.93.93,0,0,0-.2-.7,1.3,1.3,0,0,0-.2.43A1.46,1.46,0,0,1,155.14,83.48Zm0-26.24a.72.72,0,0,1,.7-.35.46.46,0,0,0,.51-.53V56a2,2,0,0,0-.91.26c-.34.18-.51.38-.51.62A.5.5,0,0,0,155.14,57.24Zm.4,21.17a2.61,2.61,0,0,1-.1-1.4c.06-.7,0-1.05-.1-1.05l-.2.17a2.84,2.84,0,0,1,0,1.49c-.14.64-.07,1,.2,1Zm.81,52.84a.91.91,0,0,0,.6.17c.54,0,.81-.23.81-.7a.66.66,0,0,0-.2-.52,3.07,3.07,0,0,1-.81.52A.56.56,0,0,0,156.35,131.25ZM158,122c.27-.35.51-.46.71-.35s.3-.17.3-.87h-1v.17a.48.48,0,0,1-.2.35.66.66,0,0,0-.2.53A.59.59,0,0,0,158,122Zm0-65.78c.27-.24.4-.41.4-.53s-.2-.46-.6-.7v1C157.76,56.13,157.83,56.19,158,56.19Zm0,4.55a17.93,17.93,0,0,0,.1,2.09,1.46,1.46,0,0,0,1.11,1.23,7.73,7.73,0,0,1,.2-1.84,6.8,6.8,0,0,0,.21-1.66c0-.23-.21-.35-.61-.35C159,60.33,158.63,60.5,158,60.74Zm.4,13.64a6.36,6.36,0,0,0-.2,1.93c0,1.28,0,2.59.1,3.93s.1,2.66.1,3.94v1.4c0,.94.27,1.4.81,1.4V75.17c0-1.22-.07-1.84-.2-1.84a2.27,2.27,0,0,1-.4.53A.64.64,0,0,0,158.36,74.38Zm0,15.57a2,2,0,0,0-.2,1v1.13a5.88,5.88,0,0,0,.2,1.58,4.11,4.11,0,0,1,.21,1.05,1.35,1.35,0,0,1-.21.7,1.75,1.75,0,0,0-.2.87c0,.82.34,1.23,1,1.23V90c0-.76-.07-1.14-.2-1.14a2.27,2.27,0,0,1-.4.53A.64.64,0,0,0,158.36,90Zm0,14.18a1.18,1.18,0,0,1-.1.43,1.27,1.27,0,0,0-.1.44c0,.35.14.53.41.53s.4-.59.4-1.75v-1.93c0-.46-.14-.76-.4-.87A15.67,15.67,0,0,0,158.36,104.13Zm.81-33.07c0-.58,0-1.34.1-2.28s-.23-1.4-.91-1.4v2.28C158.36,70.59,158.63,71.06,159.17,71.06Zm-.2,42.51v-1.92c0-.7-.14-1.11-.4-1.23a4.35,4.35,0,0,0-.21,1.75C158.36,113.11,158.57,113.57,159,113.57Z" transform="translate(-4.19 -24.17)"/><path class="cls-1" d="M127.76,64.18c.24,0,.34,0,.28.11a.28.28,0,0,0-.1.18c0,.44-.33.87-1,1.29a11.15,11.15,0,0,0-1,.65c0,.17.37.26,1.1.26l1.18,0h1.36l.73,0q1.27,0,2.46,0t2.64,0h3l3,0c1.46,0,2.64,0,3.55-.11s2-.12,3.18-.12a2.55,2.55,0,0,1,.73.08s.18.07.55.12c-.13-.07-.07-.17.18-.31a5,5,0,0,1,1.09-.41c.48-.14,1-.26,1.55-.37a8.66,8.66,0,0,1,1.72-.16c.37,0,.55.15.55.32a.9.9,0,0,1-.18.49,2.14,2.14,0,0,1-.37.44h1.1a28.9,28.9,0,0,1,4.36.22,15.9,15.9,0,0,1-2.36.25h-2.19a6.18,6.18,0,0,0-1.81.23,4.41,4.41,0,0,0-1.1.46q-.36.24-.36.42c0,.11.06.14.18.08a2.76,2.76,0,0,0-.82.3l-1,.56a11.54,11.54,0,0,0-1,.65c-.3.23-.58.41-.82.56a14.38,14.38,0,0,0-1.45,1l-1.46,1.13c-.48.37-1,.72-1.46,1a5.44,5.44,0,0,1-1.45.72c-.49.28-.73.5-.73.66s-.24.35-.73.59c0,.51-.39.88-1.18,1.12a10.72,10.72,0,0,1-1.18.32c-.25.14-.55.32-.91.51s-.55.37-.55.54a.31.31,0,0,0,.19.29,6.74,6.74,0,0,0-2.82,1A5.4,5.4,0,0,0,133,80.6a7.8,7.8,0,0,0,.91,0H139l2,0,2.45,0c.79,0,1.49,0,2.09.06a2.57,2.57,0,0,1,.91.11,3.59,3.59,0,0,1-.81.07l-1,0h-.54c-.12,0-.82,0-2.09.06l-1.55,0s-.06,0-.18,0a2.31,2.31,0,0,1-.37,0l-.18,0s-.06,0-.18,0a2.19,2.19,0,0,0-.36,0s-.07,0-.19,0h-.91l-1.45,0h-1.82c-.49,0-.94,0-1.36,0a5.47,5.47,0,0,0-1.19.21,2,2,0,0,0-.91.51,2.66,2.66,0,0,0-.91.29l-1.09.52c-.36.18-.67.35-.91.5s-.24.2,0,.16c-.85.15-1.21.29-1.09.43s-.12.18-.73.14a7.81,7.81,0,0,1-1.45.54,3.94,3.94,0,0,1-.91.13,3.63,3.63,0,0,1-.55,0q-.18,0-.18.06l-.64.12c-.3,0-.64.1-1,.14s-.67.09-.91.13-.3.06-.18.06a8.57,8.57,0,0,1-.91.13l-.73.06a4.65,4.65,0,0,1-.54,0h-.19a7.44,7.44,0,0,0,1.1.06h4.36l2.28,0,2.09,0h1.09l.91,0,2.73.08,2.55.11a16.6,16.6,0,0,1-2.64.18c-1.4,0-2.94.05-4.64.06l-5.19,0H119c-1.7,0-3.37,0-5,.06s-3.25.07-4.83.07c-.85,0-1.76,0-2.73-.07s-2.06-.06-3.27-.06h-3c-1,0-2,0-3,0H95.74c-.24,0-.36,0-.36.1s0,.07.09.09.09,0,.09.07-.13.09-.37.09v.07a5.13,5.13,0,0,1-1.27.12l-.64-.06c-.18,0-.27-.11-.27-.26s0-.08.09-.11.09-.07.09-.11c-.61,0-1.27-.06-2-.06H80.64c-1,0-2,0-3.19,0a19.64,19.64,0,0,0-2.27.15c-1.58-.11-3.46-.17-5.64-.19l-6.37,0h-.73c-.48,0-.73-.07-.73-.2s.21-.1.64-.11h2.91c.43,0,.64,0,.64-.07a2.53,2.53,0,0,0-.64-.14l-1.45-.24c-.55-.09-1.25-.18-2.1-.29v-.06a2,2,0,0,1-.54-.15c-.37-.11-.67-.21-.91-.3a37.41,37.41,0,0,1-5.1-1.66c-.48-.28-.72-.4-.72-.35a4,4,0,0,0-.73-.31c-.49-.18-1-.37-1.46-.59H46A17.18,17.18,0,0,1,43.7,81a8.53,8.53,0,0,1,2.36-.2c1.46,0,2.85,0,4.19,0h1.27A4.45,4.45,0,0,0,50,79.93c-.79-.3-1.19-.57-1.19-.8l.19-.07c-.25,0-.4-.06-.46-.14a.88.88,0,0,0-.45-.18v-.06a5.8,5.8,0,0,1-.91-.22c-.49-.17-.73-.35-.73-.55,0,0,0,0,.09,0s.09,0,.09-.05a1.58,1.58,0,0,1-.91-.32,3,3,0,0,0-1.27-.45v-.13c0-.27-.4-.6-1.19-1a5.16,5.16,0,0,1-1.36-.78,2.23,2.23,0,0,1-.82-.24,3.73,3.73,0,0,1-.45-.35,1.35,1.35,0,0,1-.28-.34.36.36,0,0,0-.27-.19,2,2,0,0,1-.64-.22l-1-.48c-.36-.17-.67-.32-.91-.45s-.36-.18-.36-.16,0,0-.09,0-.09,0-.09,0a1.21,1.21,0,0,1,.36-.16,6.83,6.83,0,0,1-1-.56,8,8,0,0,1-.82-.62,1.53,1.53,0,0,0-.82-.19c-.42,0-.63-.09-.63-.19s.06-.08.18-.11.18-.08.18-.15-.12-.2-.36-.36a8.09,8.09,0,0,0-.91-.5,5.68,5.68,0,0,1-.91-.51c-.25-.17-.37-.3-.37-.38s-.45-.4-1.36-.69a7.37,7.37,0,0,1-2.28-1.14h-4L22.5,67c-.54,0-.82-.08-.82-.19s.37-.16,1.09-.16h1.28c.61,0,1.3,0,2.09,0s1.18,0,1.18-.1-.06-.09-.18-.14-.18-.11-.18-.18v-.06c.24,0,.49,0,.73,0s.54,0,1.27-.1a13.43,13.43,0,0,0,3.73.45c2,.09,4.25.14,6.73.16s5,0,7.56,0l6,0a3.15,3.15,0,0,1,.91.08,3.1,3.1,0,0,0,.91.08c.48,0,.73,0,.73-.1s-.09-.13-.28-.22-.27-.17-.27-.26a2.19,2.19,0,0,1,.36,0,2.89,2.89,0,0,1,1.1.23c.36.15.54.24.54.28.24,0,.37-.08.37-.12s-.19-.13-.55-.2-.55-.11-.55-.16a2.08,2.08,0,0,1,.55-.09c1,0,1.46.08,1.46.25s.18.31.54.42q1.46,0,3,0h9.92c2.3,0,4.55,0,6.73,0,1.46,0,3,0,4.55,0s3,.06,4.37.17a21.12,21.12,0,0,1-3.37.16q-3,0-6.46,0H62.81A28.77,28.77,0,0,0,68,71.35q3.18,2.06,7.19,4.14c.6.4,1.12.73,1.54,1s1,.55,1.73.91a1.59,1.59,0,0,1,.64.18.93.93,0,0,1,.36.27,1.29,1.29,0,0,0,.19.21c.06,0,.09,0,.09,0a20,20,0,0,0,2.82,1.36c.91.35,1.48.58,1.73.69a18.43,18.43,0,0,0,3.91.46c1.64,0,3.3.08,5,.08A15.2,15.2,0,0,1,93.28,79a2.27,2.27,0,0,1,1-1.51c.49.08.79.24.91.48a3.49,3.49,0,0,1,.28.79,2.53,2.53,0,0,1,0,1,1.51,1.51,0,0,0,.09.94l1.36,0,2.46,0c.85,0,1.61-.07,2.27-.15s1-.17,1-.3.21-.27.64-.5l1.27-.67a19.49,19.49,0,0,1,1.91-.81c.73-.49,1.55-1,2.46-1.52A13.13,13.13,0,0,0,111.21,75c.24-.26.51-.52.81-.79s.64-.53,1-.81h.19q.18,0,.18,0s0,0-.09,0-.09,0-.09,0,.06-.08.18-.13.06-.05.18-.09h.18a12.07,12.07,0,0,0,2.73-1.57,19.47,19.47,0,0,1,1.82-1.37s.06-.09.18-.14.25-.1.37-.15l-.18-.06.18,0a1.92,1.92,0,0,0,.73-.34c.24-.18.42-.32.54-.43s.12-.15.37-.32a.71.71,0,0,0,.36-.57V68a1.18,1.18,0,0,0,.55-.38,1.72,1.72,0,0,1,.54-.48,10.49,10.49,0,0,0-1.82-.08c-.85,0-1.64,0-2.37,0l-.9,0h-.91c-1.1,0-1.64-.08-1.64-.25s.3-.1.91-.1h2.27l3,0h1.81s.06,0,.19-.06l.18,0s.06,0,.18,0l.36-.13h.19c.6-.38,1.12-.68,1.54-.91a10.36,10.36,0,0,0,1-.57q.36-.24,0-.12s.06-.06.19-.12a1.72,1.72,0,0,0,.27-.13,1.13,1.13,0,0,1,.27-.13,1.4,1.4,0,0,1,.46-.09A5,5,0,0,0,127.76,64.18ZM34.24,67.63l-.73.09c-.24,0-.36.07-.36.13s.06,0,.18,0a12.46,12.46,0,0,0,1.27-.19,8.49,8.49,0,0,0,1.09-.22q-.18,0-.18,0l-.63.09Zm-.18-.39s.12-.06.36-.08.36,0,.36-.08h-.36c-.49,0-.73,0-.73.1S33.81,67.24,34.06,67.24Zm.18,1.35a9.18,9.18,0,0,0,1.18-.12c.55-.07.82-.13.82-.17s-.06,0-.18,0a4,4,0,0,1-1.09.14C34.48,68.42,34.24,68.48,34.24,68.59ZM37.7,69a13.16,13.16,0,0,0-1.46.1,3.77,3.77,0,0,0-.91.13c0,.08.18.12.55.12,0-.06.36-.12,1.09-.19s1.09-.14,1.09-.22-.06,0-.18,0,0,.06-.09.06S37.7,69,37.7,69Zm0,1A6.26,6.26,0,0,1,37,70c-.25,0-.37,0-.37.08s0,0,.09,0,.1,0,.1,0A10.06,10.06,0,0,0,38.42,70c.61-.1.91-.18.91-.24s-.06,0-.18,0a2.88,2.88,0,0,1-.64.09C38.21,69.89,37.94,69.92,37.7,70Zm2-2.88a6.2,6.2,0,0,1-.91.24,8.82,8.82,0,0,0-.91.24,12.71,12.71,0,0,0,1.63-.14c.49-.07.79-.11.91-.11h.37c.24,0,.51-.08.82-.11s.57-.07.82-.12Zm-.19,4.73.19,0v.1a14.12,14.12,0,0,0,1.63-.19,12,12,0,0,0,1.28-.22l-.18,0a7.4,7.4,0,0,1-1.55.15A4.31,4.31,0,0,0,39.51,71.81Zm3.83.64a12.38,12.38,0,0,1-1.46.18c-.49,0-.73.1-.73.2s.24.16.73.23A7.34,7.34,0,0,1,43,72.8c.49-.08,1-.18,1.46-.28s1-.2,1.45-.32c0,0-.06,0-.18-.07a2.87,2.87,0,0,1-.91.16C44.31,72.33,43.82,72.39,43.34,72.45Zm1.82.77a7.9,7.9,0,0,0,1.45-.13l.73-.13h.54c3.16-.55,5.49-.92,7-1.1s2.39-.29,2.64-.33a18.32,18.32,0,0,0,2.36-.34A14.41,14.41,0,0,1,62.81,71a3.83,3.83,0,0,0-.73-.4c-.37-.16-.49-.24-.37-.24h-.18c-2.67.49-5.46,1-8.37,1.39S47.58,72.66,45.16,73.22Zm.54-6v.07l-.18.06-.18,0s.06,0,.18,0a5.93,5.93,0,0,1,.82-.1,4,4,0,0,0,.82-.13h-.55A7.92,7.92,0,0,0,45.7,67.24Zm7.64,0a18,18,0,0,0-2.09.31,13.31,13.31,0,0,1-1.36.24c-.73.12-1.55.25-2.46.36a6.28,6.28,0,0,0-1.37.24l.92-.13,1.09-.15.36,0A12.3,12.3,0,0,0,50,68c.54-.06,1-.14,1.45-.22l1-.19.19,0a1.42,1.42,0,0,0,.36,0c.24,0,.3,0,.18,0s-.12,0,0,0h.55l.91-.13a9.82,9.82,0,0,1,1.09-.06l.18.06q.36,0,.36-.06s-.21-.07-.63-.1-.88,0-1.37,0Zm4.19,1.41a20.88,20.88,0,0,0-2.28.35,6,6,0,0,1-1.36.19l-.18,0c-.13,0-.18,0-.18.05s-.07,0-.19,0a2.33,2.33,0,0,0-.36.08,1.53,1.53,0,0,1-.36,0l-.37,0c-1,.17-2,.34-3.18.5s-2.16.32-3,.49L48.89,70l4.27-.48,3.91-.46c1.16-.14,1.73-.22,1.73-.24s0-.07-.09-.08-.09,0-.09-.08v-.06l-.36,0a1.78,1.78,0,0,0-.46,0A.91.91,0,0,1,57.53,68.62Zm3.09,3.32c-2.06.36-3.61.62-4.64.78s-1.82.27-2.36.34-.89.09-1,.09a2.21,2.21,0,0,0-.37,0l-2.27.4c-1,.18-1.55.28-1.55.3s.06,0,.18,0a16.49,16.49,0,0,0,1.82-.17l2.73-.39c1-.14,1.88-.27,2.73-.41l2-.31c.12,0,.37-.09.73-.16a2.2,2.2,0,0,0,.36,0,11.78,11.78,0,0,0,2.37-.32,17.63,17.63,0,0,1,3.09-.39l-.36-.16c-.12,0-.18-.09-.18-.16v-.06a9,9,0,0,0-1.82.26A9.49,9.49,0,0,1,60.62,71.94Zm-3.27,2.75-2.19.38c-1,.17-1.91.35-2.82.53s-1.7.36-2.36.53-1,.29-1,.38.06,0,.18,0c1.45-.34,3-.65,4.55-.93s3.06-.51,4.46-.7l3.54-.46,1.82-.24c.61-.09,1.09-.17,1.46-.24a7.11,7.11,0,0,1,1.45-.11,4.08,4.08,0,0,1,.82.06,3,3,0,0,0,.64.06q.18,0,.18-.06a3,3,0,0,1-.73-.38,1.25,1.25,0,0,0-.72-.26c-1.34.26-2.86.5-4.55.72S58.8,74.45,57.35,74.69Zm-6.92,3.42s.06-.08.18-.1.19-.05.19-.1h-.91A3.21,3.21,0,0,0,50.43,78.11Zm-.18-3.23-.18.06s.06,0,.18,0,.06,0,.18,0h.37l.91-.17c.36-.08.72-.15,1.09-.21l.91-.14c.24,0,.36,0,.36,0v-.06c.61-.07,1.55-.19,2.82-.39s2.55-.39,3.82-.6,2.4-.41,3.37-.58,1.45-.26,1.45-.28-.12-.13-.36-.13c-4.12.51-7.07.91-8.82,1.21s-3,.53-3.64.69a3,3,0,0,0-1.1.37A3.6,3.6,0,0,1,50.25,74.88Zm0-6.1q2-.14,3-.24c.67-.08,1.19-.15,1.55-.21l1.09-.17c.36-.06.85-.12,1.46-.18,0-.13-.19-.21-.55-.26-1,.2-2,.37-3.18.53S51.34,68.59,50.25,68.78Zm1.82,10.06s0-.07.09-.08.09,0,.09-.05-.3-.09-.91-.09C51.34,78.74,51.58,78.82,52.07,78.84Zm1.27.93a1.77,1.77,0,0,1,.64.17,2.83,2.83,0,0,1,.46.31,2.5,2.5,0,0,0,.45.3,2.46,2.46,0,0,0,.82.21q0-.14.45-.18a1.51,1.51,0,0,0,.64-.17,8,8,0,0,1-1.73-.21q-.63-.18-.63-.27c0-.05,0-.08.09-.12s.09,0,.09-.08-.18-.06-.55-.06c0,0-.12.06-.36,0S53.34,79.72,53.34,79.77ZM58.62,69.7l-2.73.39a6.59,6.59,0,0,0-2,.41h.18a.91.91,0,0,0,.27,0,.94.94,0,0,1,.28,0H55c.48-.09,1.24-.19,2.28-.32a20.24,20.24,0,0,1,2.45-.19,6,6,0,0,1,.64,0L61,70c0-.12-.13-.22-.37-.3s-.36-.16-.36-.27a3.66,3.66,0,0,0-1,.09A3.32,3.32,0,0,1,58.62,69.7ZM71,75.84c-1.09.21-2.27.42-3.55.62s-2.42.4-3.45.59l-2.64.51c-.73.15-1.09.27-1.09.35a27,27,0,0,0-3.28.71A44.79,44.79,0,0,0,61.9,78c1.69-.3,3.27-.62,4.73-.94s2.63-.59,3.54-.81,1.37-.31,1.37-.24,0-.06-.09-.1A1.06,1.06,0,0,0,71,75.84ZM59.17,82.51v0s0-.07.09-.08.09,0,.09-.08c-.49,0-.85,0-1.09,0A2.14,2.14,0,0,0,59.17,82.51Zm8.91-8.27a8.1,8.1,0,0,1-1.54.37l-2.64.45L61,75.52c-1,.15-1.76.29-2.37.41a8.76,8.76,0,0,0,1.73-.16l1.36-.25c.61-.11,1.28-.2,2-.27a5.61,5.61,0,0,1,.91-.08c.73-.13,1.43-.25,2.1-.35a11.63,11.63,0,0,1,1.91-.16H69s-.09-.15-.27-.31a1.27,1.27,0,0,0-.64-.3s0,0-.09,0-.09,0-.09,0,0,0,.09.07S68.08,74.22,68.08,74.24Zm2,3.07c-1.45.32-2.64.56-3.54.72s-1.64.27-2.19.35l-1.27.16c-.31,0-.58.07-.82.11-1.46.25-2.31.43-2.55.51s-.3.06-.18.06l.18.07-.63.11c-.31,0-.46.11-.46.18s.06,0,.18,0,.06,0,.18,0h.19a16.93,16.93,0,0,0,2.45-.24c1-.16,2.12-.35,3.28-.56s2.21-.42,3.18-.63,1.76-.35,2.37-.46a14.13,14.13,0,0,1,2-.34,6.1,6.1,0,0,0,1.64-.3,2.51,2.51,0,0,1-.55-.14,2.41,2.41,0,0,0-.55-.15,10.08,10.08,0,0,1-1.27.29C71.23,77.14,70.69,77.22,70.08,77.31Zm-9.82-9.75c0-.17-.18-.28-.55-.35-.12,0-.18.06-.18.1S59.77,67.52,60.26,67.56ZM75.54,77.69,74,78l-2,.32c-.66.1-1.27.21-1.82.31a2.29,2.29,0,0,0-.81.23c0,.11-.31.23-.91.37s-1.31.27-2.1.4l-2.09.32a2.61,2.61,0,0,1-.91.06q0,.17-.36.24c-.25,0-.55.09-.91.13l-.91.09c-.25,0-.37.08-.37.15s.06,0,.19,0a2.41,2.41,0,0,1,.81-.24c.55-.12,1.12-.24,1.73-.35l1.73-.32.64-.11c1.33-.24,2.66-.48,4-.74s2.61-.49,3.82-.7l.37,0q.36,0,.27,0c-.06,0,0-.06.27-.1a5.75,5.75,0,0,1,.91-.06c.37,0,.55,0,.55-.16s0,0-.09-.07-.09,0-.09-.06l-.19,0Q75.54,77.66,75.54,77.69ZM63.35,81.17a4,4,0,0,1-.73.16c-.36.07-.54.12-.54.16s.06.05.18.07c.48-.09,1-.16,1.45-.23a2.48,2.48,0,0,0,.73-.13,1.29,1.29,0,0,0-.45,0Zm1.27,3s0-.07.1-.08.09,0,.09,0h-.19a2.21,2.21,0,0,0-.45,0H63.9a2.22,2.22,0,0,1-.37,0c0,.09.18.13.55.13Zm5.46-3c-1,.24-2,.45-3.18.64a6.54,6.54,0,0,0-1.73.38s.06,0,.18,0a10.75,10.75,0,0,1,2.37-.42c1.21-.13,2.12-.24,2.73-.35l.72-.13.73-.09s-.21-.07-.63-.07Zm4-2c-.61.11-1.43.24-2.46.4l-2.91.46q-1.36.23-2.37.42a3.12,3.12,0,0,0-1,.26s.06,0,.18,0h.37a5.5,5.5,0,0,0,.73,0,5,5,0,0,0,1.82-.24c.36-.16.54-.2.54-.11v-.1a7.27,7.27,0,0,0,1.46-.19l2.09-.43q1.18-.24,2.55-.45a18.53,18.53,0,0,1,2.82-.21l.36,0,.37,0c.11,0,.18,0,.18,0-.37-.06-.58-.14-.64-.25s-.34-.19-.82-.26a5.92,5.92,0,0,1-1.45.35Zm3.82,2c-.85.13-1.79.29-2.82.47l-3,.51c-1,.16-1.79.3-2.45.43s-1,.22-1,.29.06,0,.18,0a19.53,19.53,0,0,1,3-.55c1.28-.14,2-.24,2.28-.28.6-.11,1.42-.22,2.45-.34a9.94,9.94,0,0,0,1.91-.33l.37,0,.45-.08a1.64,1.64,0,0,0,.37-.1c.06,0,0,0-.19-.06s-.57,0-1.18,0ZM75.18,85.1c-.37,0-1,0-1.82,0-.61,0-1.12,0-1.55-.06s-.64-.12-.64-.22v-.07h-.36a6.11,6.11,0,0,0-.64,0,3.92,3.92,0,0,1-.63,0h-.18a4.73,4.73,0,0,0,2.45.35h3.55l.82,0h1.18l.55,0a2.81,2.81,0,0,0,.54-.07q-.36,0-.36-.12c0-.07-.12-.12-.36-.16a12.84,12.84,0,0,1-1.28.14C76,85,75.54,85.06,75.18,85.1Zm7.28-3.22q-.55.06-2.37.33c-1.21.18-2.46.37-3.73.58s-2.4.4-3.37.6-1.45.35-1.45.43.06,0,.18,0c2.67-.37,4.7-.63,6.1-.8s2-.26,1.72-.26c1.94-.34,3.19-.54,3.73-.59s.82-.14.82-.27,0-.06-.09-.11-.21-.08-.45-.08a3,3,0,0,0-.64,0ZM77.73,79.8a27.42,27.42,0,0,1-3.1.56,6.19,6.19,0,0,0-2,.4h.64l.27,0a2,2,0,0,0,.55,0s.12,0,.36,0h.36v-.07a2.31,2.31,0,0,0,.37,0,8.3,8.3,0,0,0,2.27-.28,5.68,5.68,0,0,1,1.37-.29h1c.3,0,.57,0,.82,0s.18,0,.18,0a1.48,1.48,0,0,1-1-.37.84.84,0,0,0-.64-.3,6.36,6.36,0,0,0-.73.16Zm1.81,4c1.22-.08,2.34-.21,3.37-.37l3.19-.49c0-.09-.19-.13-.55-.13q-1.45.26-3,.48C81.52,83.43,80.51,83.6,79.54,83.79Zm1.64-3.13.18,0c.25,0,.37,0,.37-.09s-.12-.1-.37-.1c0,0,0,.07-.09.08s-.09,0-.09,0Zm6,3.1c-.61.11-1.19.22-1.73.34l-1.73.33h.18c1.58,0,2.3,0,2.19-.13s-.13-.12,0-.12h.54c.24-.05.55-.1.91-.15s.55-.1.55-.14c-.25,0-.37,0-.37-.07s-.12-.06-.36-.06ZM88.64,85l-.54-.1-.73-.06A8.33,8.33,0,0,1,86.1,85a10.28,10.28,0,0,0-1.28.15h6c0-.09-.25-.13-.73-.13S89.13,85,88.64,85Zm-1.45-3.42c.36-.07.75-.12,1.18-.18s.82-.11,1.18-.17l-1.63,0-1.64,0c-.12,0-.18,0-.18.07a.81.81,0,0,1,.45.17C86.61,81.49,86.82,81.55,87.19,81.59Zm4.73.19c-.61.13-1.37.25-2.28.37s-1.36.2-1.36.27.18.09.54.09a7.05,7.05,0,0,0,1.82-.24,10.72,10.72,0,0,1,2.19-.3v-.32c0-.06-.12-.09-.37-.09q0,.09-.18.12Zm-1.46,1.79a11.59,11.59,0,0,0,1.73-.19c.55-.11.82-.22.82-.32s-.12-.12-.36-.16l-1.46.21c-.61.07-.91.17-.91.3S90.34,83.53,90.46,83.57Zm5.64-1.15c-.36,0-.54.07-.54.22s.06.14.18.16a3.21,3.21,0,0,1,1-.24l1.64-.22c.54-.08,1-.16,1.45-.24s.64-.18.64-.29,0,0-.09,0-.09,0-.09,0c-.61.13-1.31.23-2.09.32A15.28,15.28,0,0,0,96.1,82.42Zm7.83,2.2c.24,0,.54-.08.91-.11a1.77,1.77,0,0,0,.54-.08s-.12,0-.36,0t-.36,0h-.55c0,.09-.25.13-.73.13a2.19,2.19,0,0,0-.36,0,4,4,0,0,1-1.37.12l-1.73.07-.45,0-.46,0c-.24,0-.42,0-.54.07l2.91-.08C102.47,84.73,103.32,84.69,103.93,84.62Zm-.55-2.52a21.29,21.29,0,0,0,2.19-.16,16.23,16.23,0,0,0,1.81-.26,3.43,3.43,0,0,0-.45,0l-.27,0a7.18,7.18,0,0,1-1.28-.08,6.27,6.27,0,0,0-1.27-.08q0,.15-.36.27C103.5,81.9,103.38,82,103.38,82.1Zm2.55-1.5v0c0-.07-.06-.1-.18-.1v.06c0,.07.06.1.18.1Zm16.74-2.81-5.92.51-1.72.13c-.13,0-.1,0,.09,0l-.46,0c-.73,0-1.42.09-2.09.15a20.06,20.06,0,0,1-2.09.1,3,3,0,0,1-.64-.06,1.77,1.77,0,0,0-.45-.07,1.64,1.64,0,0,0-.55.16l-.73.34-.63.3c-.19.09-.28.11-.28.07s.12,0,.37.09.82-.16,1.36-.24,1.09-.14,1.64-.19l1.36-.11c.37,0,.49,0,.37,0a7,7,0,0,0,1.45-.12,5.3,5.3,0,0,1,.73-.11h.18l.55-.06.54-.1.19,0,.18,0v0h.54l.46-.08c.18,0,.39-.06.63-.08l.55-.06h.55c-.12-.07.06-.09.54-.08a27,27,0,0,0,3.28-.34,5.34,5.34,0,0,0,1.27-.13,2,2,0,0,1,.55-.09s-.07,0-.18,0A12.31,12.31,0,0,1,122.67,77.79Zm-10.74,5.84-.18,0c-.24,0-.91.1-2,.16s-1.64.16-1.64.29h.18a8.61,8.61,0,0,1,2.73-.37,16.77,16.77,0,0,0,3.1-.27C113.63,83.49,112.9,83.55,111.93,83.63Zm1.64-3.7q-.91.15-2.46.24c-1,0-1.3.08-.81.08l-.37,0-.91.2a3.36,3.36,0,0,0-.73.19v0a16,16,0,0,0,2.19-.16,7,7,0,0,1,1.09-.16q-.18,0-.18,0h.54c.37-.07.73-.11,1.09-.15s.55-.06.55-.11a2.19,2.19,0,0,0,.36,0c.25,0,.37,0,.37,0s.12,0,.36-.09a6.94,6.94,0,0,1,1-.1,4.51,4.51,0,0,0,1-.13c-.48,0-1,.08-1.45.11Zm-1.27-3.49a7.72,7.72,0,0,0-1.64.87c-.49.34-.73.55-.73.64s.06.06.18.06a12.66,12.66,0,0,1,2.28-.3,3.39,3.39,0,0,0,1.73-.4,1.53,1.53,0,0,0-.64-.11c-.31,0-.46-.08-.46-.21a3.34,3.34,0,0,1,1.46-.34,2.9,2.9,0,0,0,1.27-.24l-1.45,0h-2Zm3.45,6.11c-.72.12-1.33.2-1.82.24s-.85,0-1.09,0h-.54c-.13,0-.19,0-.19.07l.19,0a34.53,34.53,0,0,1,3.54-.29c1.76-.08,2.76-.13,3-.13.48,0,.73,0,.73-.09v-.19c-.73,0-1.4.07-2,.14S116.36,82.5,115.75,82.55ZM113,76h.73s0,0-.09,0-.09,0-.09-.1-.18-.07-.18-.09-.06.07-.18.09S113,76,113,76Zm2.73,8c-.48,0-1,.1-1.45.16a3.37,3.37,0,0,1-.73.06h.18a16.25,16.25,0,0,1,1.73-.11c.67,0,1.06-.08,1.18-.21h-.18A6.62,6.62,0,0,0,115.75,84.08Zm.19-8.66a14.4,14.4,0,0,0,1.45-.13,3.26,3.26,0,0,0,1.09-.19l.37,0,.73-.12,2.91-.27,4.64-.44c1.63-.14,3.09-.29,4.36-.43a11.66,11.66,0,0,0,1.91-.27h-.18a39.86,39.86,0,0,0-5.64.27c-1.09.18-1.64.26-1.64.24-1.7.07-2.91.13-3.64.18l-1.72.14-1,.11a10.58,10.58,0,0,1-1.1.08v0c0,.08-.15.17-.45.25a7.92,7.92,0,0,1-.91.21l-.73.11q-.27,0,.09,0l-.82.14c-.3.06-.45.1-.45.15s.06,0,.18,0S115.57,75.42,115.94,75.42Zm.18-1.63a2.37,2.37,0,0,1,.63,0c.19,0,.28,0,.28,0-.73,0-1.09,0-1.09.13Zm1.45,2.37a1.45,1.45,0,0,1-.36,0c-.12,0-.18,0-.18,0a2.19,2.19,0,0,0,.36,0,6,6,0,0,0,.73,0l.73-.12a5.57,5.57,0,0,0-.82,0Zm2-3.52h.54v-.06a2.22,2.22,0,0,0,.37,0,1.16,1.16,0,0,0,.36,0c.12,0,.3-.07.55-.11l-1.1.07c-.36,0-.79,0-1.27,0a4.67,4.67,0,0,1-.91-.07c-.37.11-.55.22-.55.32v.07c.37,0,.76-.06,1.19-.1A3.89,3.89,0,0,0,119.58,72.64ZM118.85,84c.6,0,.94,0,1-.11a1,1,0,0,1,.45-.21C119.33,83.63,118.85,83.74,118.85,84Zm3.64-12.66-1.28,0a4.37,4.37,0,0,0-.72-.06,1.85,1.85,0,0,1-.55-.06,2.62,2.62,0,0,1-.46.3,2.34,2.34,0,0,0-.45.3,26.58,26.58,0,0,0,3.09-.14,15.14,15.14,0,0,0,1.55-.27,3.69,3.69,0,0,0,.55-.19s.09,0,.09.06,0,0-.09,0-.1,0-.1,0l-.18.06-.18,0Zm-1.64-.6a7.33,7.33,0,0,1,1.55-.2,9.85,9.85,0,0,0,1.72-.21c-.36,0-.79,0-1.27,0s-.91,0-1.64-.06c0,.08-.09.16-.27.22s-.27.12-.27.16S120.73,70.69,120.85,70.69Zm.91,11.63h.54a1.46,1.46,0,0,1,.37,0H123a2.93,2.93,0,0,0,.55-.18.25.25,0,0,0,.18-.23,5.59,5.59,0,0,0-1.46.16A1.68,1.68,0,0,0,121.76,82.32Zm4.18-13.7q.91-.16,2.28-.27a11.69,11.69,0,0,0,1.36-.15,2.19,2.19,0,0,0-.36,0v0a7.34,7.34,0,0,1-1.64.11c-1.09,0-1.94,0-2.55,0-.36-.08-.54-.16-.54-.22s.33-.18,1-.21a5.87,5.87,0,0,0,1.36-.17,11.31,11.31,0,0,0-2.63.35,4.79,4.79,0,0,0-1.46.62,2.53,2.53,0,0,0-.64.62,1.19,1.19,0,0,0-.18.35s.12.07.36.07a12.46,12.46,0,0,1,1.82-.24,18.49,18.49,0,0,0,2-.24c-1.46,0-2.25-.1-2.37-.29a2.39,2.39,0,0,1,1-.24C125.31,68.71,125.7,68.66,125.94,68.62Zm.55,9.52a22.7,22.7,0,0,1-2.82.29c-1,0-1.55.1-1.55.19s.06,0,.18,0a2.42,2.42,0,0,1,.64-.08l.82,0a3.84,3.84,0,0,0,1-.06,2.53,2.53,0,0,1,.82-.07h.55a2.09,2.09,0,0,0,1.09-.28h-.46Zm10.74-5.88c-1.71.15-3.46.34-5.28.57a34.91,34.91,0,0,1-3.64.36,9.5,9.5,0,0,0-2,.19c-.61.13-.91.17-.91.13,1,0,1.79,0,2.45-.07s1.25-.08,1.73-.13l1.46-.19c1,0,2-.09,3.09-.16l3.28-.16a6.63,6.63,0,0,0,.91-.33l.72-.34s-.12-.06-.36-.06-.49.07-.73.09Zm-8.74-5.18c-.24,0-.58.1-1,.15s-.64.1-.64.14v0a18,18,0,0,1,2.19-.17,10.28,10.28,0,0,0,1.82-.15ZM127.4,79.45q-.18,0-.18.06h.18c.36,0,.79-.07,1.27-.08a1.72,1.72,0,0,0,.91-.17A13.26,13.26,0,0,0,127.4,79.45ZM132,77.56c-.12,0-.46.07-1,.13s-.82.19-.82.38v0c.36,0,.7,0,1,0L132,78V78c0-.07.09-.13.27-.2s.27-.11.27-.16A1.85,1.85,0,0,0,132,77.56Zm.73-3.22c-.13,0-.19,0-.19,0H133a7.31,7.31,0,0,1,1-.08,1.66,1.66,0,0,0,.82-.15,5.49,5.49,0,0,0-1.18.08A4.28,4.28,0,0,1,132.68,74.34Zm.72,2.07a4.92,4.92,0,0,0,1.28-.08,1.26,1.26,0,0,0,.36-.24C134,76.14,133.4,76.24,133.4,76.41Zm7.1-7.09c-.73.09-1.82.19-3.27.32s-2.19.2-2.19.22h.18l3-.16c1.15-.06,2.24-.13,3.27-.22s1.94-.17,2.73-.27a4,4,0,0,0,1.36-.3C143.65,69.06,142,69.19,140.5,69.32Zm-4.73,5.78c-.12.05-.18.09-.18.13s-.12.09-.37.13a3.63,3.63,0,0,1,.55,0,3.63,3.63,0,0,0,.55,0l.45-.16c.18-.06.27-.13.27-.19S137,75,136.86,75a1.44,1.44,0,0,1-.45.06A3.91,3.91,0,0,0,135.77,75.1ZM138,74a4,4,0,0,0,1.28-.11,4.22,4.22,0,0,1,.54-.28,3.48,3.48,0,0,0-1.18.13C138.41,73.85,138.19,73.93,138,74Zm4.92-5.79c-.37,0-.79.08-1.28.12s-.85.07-1.09.11H140v0s-.06,0-.18,0l-.18,0h-.18s0,0,.09,0,.09,0,.09,0a2.51,2.51,0,0,1-.55,0q-.36,0-.36,0H139a16.54,16.54,0,0,1,2.28-.18,13.3,13.3,0,0,0,2.09-.17,5.16,5.16,0,0,0,.82,0l1.27-.08,1.09-.08c.31,0,.4,0,.28,0,.24,0,.36-.08.36-.12s.06-.07.19-.11q-1.09.06-2.28.18Zm-1.46,2-1,.08a2.42,2.42,0,0,0-.64.08s.06,0,.18,0a12.14,12.14,0,0,1,1.91-.13c.79,0,1.25-.06,1.37-.19h-.18c-.25,0-.52,0-.82,0Zm0,2.11-.36.14c-.13,0-.19.1-.19.15s.06.06.19.06c.48-.13.72-.21.72-.26v-.16q0-.09-.18-.09s0,.07-.09.08S141.41,72.35,141.41,72.39Zm4.91-5.31a5.57,5.57,0,0,1-1.45.16c-1,.07-1.28.1-.91.1l-1.46.14a11.85,11.85,0,0,1-1.45.08s.12,0,.36,0c.85,0,1.67,0,2.46-.08l2.18-.18c.67-.06,1.42-.15,2.27-.26Z" transform="translate(-4.19 -24.17)"/></svg>